<svg xmlns="http://www.w3.org/2000/svg" xmlns:xlink="http://www.w3.org/1999/xlink" width="1936" height="6886" viewBox="0 0 1936 6886"><defs><clipPath id="a"><rect width="1936" height="6886" transform="translate(3277 -1945)" fill="#fff"/></clipPath></defs><g transform="translate(-3277 1945)" opacity="0.448" clip-path="url(#a)"><g transform="translate(2395.912 -2134)" opacity="0.159"><g transform="translate(0 0)"><g transform="translate(0 141.135)"><path d="M-360.941-399.454c74.588,218.158,112.365,515.248,99.7,803.756-9.541,217.379-47.616,427.1-105.712,594.62-18.977,54.648-40.107,105.033-62.693,150.2-65.639,131.635-148.573,239.059-166.926,440.561-11.772,129.256,9.573,263.418,39.035,376.311,48.851,186.746,119.18,338.409,172.245,517.994a1765.285,1765.285,0,0,1,41.921,174.566c26.685,143.088,37.118,298.793,18.1,446.171-43.3,334.874-216.888,496.861-255.4,837.22-19.247,171.324,4.391,350.159,39.387,496.054,34.993,145.935,81.46,271.368,118.621,418.61,37.161,147.192,64.861,328.756,51.749,500.082-14.393,188.1-70.524,318.093-117,446.1q-5.033,13.871-10.038,28.418c-42.757,123.65-81.2,278.935-66.164,454.008.684,7.95,1.479,15.843,2.378,23.625,15.079,130.53,59.867,238.281,108.641,301.883,51.7,67.492,107.637,94.782,162.308,121.621" transform="translate(599.863 399.454)" fill="none" stroke="#fff" stroke-miterlimit="2" stroke-width="1" fill-rule="evenodd"/></g><g transform="translate(29.183 145.484)"><path d="M-314.215-392.063c71.974,220.59,107.965,516.619,95.094,804.145-9.7,216.632-47.03,425.783-103.927,594.288a1354.437,1354.437,0,0,1-61.32,151.78c-64.124,133.972-144.538,245.072-161.966,446.24-11.136,128.541,9.708,261.4,38.546,373.946,47.787,186.025,116.665,338.42,168.371,517.81,15.607,54.351,29.66,112.878,40.763,174.14,25.837,142.487,35.6,296.864,17.059,443.3-42.186,332.486-209.8,500.725-248.258,838.253-19.117,169.063,2.633,345.427,35.379,490.613,32.746,145.237,76.594,271.1,111.862,417.636,35.268,146.49,61.809,325.576,49.919,494.842-13.049,185.844-65.359,316.434-108.246,444.851-3.1,9.372-6.188,18.859-9.252,28.57-39.411,123.707-74.5,277.283-58.928,449.6.708,7.849,1.522,15.584,2.435,23.263,15.3,128.563,58.749,235.5,105.968,300.6,50.053,69.053,104.13,100,157,130.427" transform="translate(549.383 392.063)" fill="none" stroke="#fff" stroke-miterlimit="2" stroke-width="1" fill-rule="evenodd"/></g><g transform="translate(58.359 149.832)"><path d="M-267.5-384.671c69.358,223.024,103.561,518,90.486,804.527-9.85,215.883-46.447,424.466-102.142,593.965A1453.794,1453.794,0,0,1-339.1,1167.182c-62.606,136.316-140.5,251.1-157.006,451.933-10.5,127.823,9.845,259.361,38.06,371.574,46.722,185.3,114.15,338.425,164.5,517.631,15.2,54.351,28.863,112.694,39.6,173.711,24.992,141.873,34.078,294.925,16.019,440.41-41.078,330.1-202.714,504.622-241.121,839.3-18.984,166.8.877,340.676,31.373,485.15,30.494,144.536,71.726,270.832,105.1,416.669,33.377,145.78,58.757,322.374,48.088,489.572-11.7,183.58-60.195,314.773-99.49,443.66q-4.253,14.078-8.467,28.609c-36.063,123.877-67.8,275.683-51.689,445.244q1.1,11.535,2.491,22.9c15.523,126.59,57.629,232.771,103.3,299.317,48.408,70.617,100.618,105.163,151.685,139.313" transform="translate(498.917 384.671)" fill="none" stroke="#fff" stroke-miterlimit="2" stroke-width="1" fill-rule="evenodd"/></g><g transform="translate(87.525 154.18)"><path d="M-220.795-377.28c66.744,225.471,99.16,519.381,85.88,804.922-10.009,215.133-45.869,423.149-100.36,593.639a1564.314,1564.314,0,0,1-58.578,154.943C-354.941,1314.9-430.326,1433.373-445.9,1633.882c-9.871,127.094,9.98,257.324,37.571,369.187,45.655,184.571,111.636,338.444,160.624,517.467,14.8,54.341,28.065,112.5,38.443,173.27,24.139,141.27,32.553,292.992,14.973,437.529-39.968,327.7-195.625,508.516-233.981,840.353-18.854,164.518-.879,335.907,27.367,479.68,28.241,143.83,66.858,270.556,98.341,415.692,31.486,145.069,55.707,319.167,46.262,484.295-10.365,181.322-55.035,313.12-90.737,442.49q-3.863,14.071-7.684,28.688c-32.6,124.161-61.105,274.082-44.448,440.819.756,7.586,1.609,15.117,2.549,22.533,15.744,124.615,56.507,229.979,100.622,298.031,46.768,72.187,97.11,110.4,146.381,148.167" transform="translate(448.467 377.28)" fill="none" stroke="#fff" stroke-miterlimit="2" stroke-width="1" fill-rule="evenodd"/></g><g transform="translate(116.684 158.529)"><path d="M-174.1-369.888c64.131,227.925,94.757,520.771,81.267,805.311-10.161,214.38-45.284,421.827-98.575,593.312-17.389,55.861-36.737,108.253-57.205,156.54-59.573,141.029-132.446,263.206-147.082,463.384-9.24,126.367,10.115,255.286,37.079,366.8,44.59,183.839,109.123,338.452,156.751,517.29,14.407,54.336,27.271,112.318,37.282,172.834,23.3,140.66,31.036,291.043,13.933,434.64-38.855,325.3-188.536,512.42-226.841,841.4-18.722,162.244-2.638,331.138,23.359,474.2,25.994,143.127,61.992,270.287,91.584,414.717,29.593,144.363,52.655,315.955,44.434,479.01-9.026,179.037-49.873,311.454-81.983,441.285q-3.472,14.15-6.9,28.789C-336.24,5943.9-361.406,6092.042-344.2,6256c.783,7.482,1.65,14.854,2.6,22.167,15.966,122.631,55.387,227.233,97.951,296.742,45.125,73.76,93.6,115.6,141.072,157.1" transform="translate(398.03 369.888)" fill="none" stroke="#fff" stroke-miterlimit="2" stroke-width="1" fill-rule="evenodd"/></g><g transform="translate(145.83 162.877)"><path d="M-127.423-362.5C-65.9-132.109-37.065,159.673-50.757,443.211c-10.319,213.633-44.7,420.51-96.795,592.994-16.992,56.161-35.894,109.062-55.835,158.137-58.053,143.393-128.42,269.277-142.12,469.137-8.612,125.634,10.25,253.233,36.59,364.412,43.525,183.106,106.608,338.467,152.88,517.116,14,54.332,26.471,112.133,36.121,172.393,22.448,140.054,29.516,289.107,12.89,431.746-37.747,322.894-181.446,516.344-219.7,842.462-18.592,159.959-4.4,326.351,19.35,468.694,23.744,142.416,57.126,270.021,84.825,413.743,27.7,143.648,49.6,312.737,42.6,473.713-7.679,176.759-44.708,309.779-73.224,440.085-2.055,9.469-4.088,19.1-6.116,28.83-25.888,124.392-47.712,270.81-29.971,431.991q1.21,10.986,2.662,21.8c16.187,120.643,54.267,224.425,95.28,295.448,43.482,75.339,90.088,120.872,135.763,166.006" transform="translate(347.615 362.496)" fill="none" stroke="#fff" stroke-miterlimit="2" stroke-width="1" fill-rule="evenodd"/></g><g transform="translate(174.963 167.225)"><path d="M-80.758-355.1C-21.852-122.254,5.2,168.466-8.7,451c-10.471,212.884-44.118,419.189-95.01,592.674-16.6,56.466-35.051,109.873-54.459,159.738-56.54,145.764-124.4,275.364-137.162,474.9-7.988,124.91,10.385,251.185,36.1,362.019,42.458,182.371,104.094,338.476,149,516.941,13.605,54.328,25.681,111.948,34.967,171.961,21.6,139.442,27.993,287.149,11.847,428.837-36.639,320.476-174.36,520.279-212.564,843.524-18.459,157.669-6.152,321.545,15.344,463.182,21.492,141.7,52.255,269.747,78.066,412.759,25.808,142.938,46.551,309.51,40.775,468.4-6.338,174.469-39.546,308.105-64.47,438.878q-2.688,14.267-5.331,28.915c-22.535,124.523-41.015,269.212-22.732,427.547.831,7.221,1.739,14.384,2.72,21.433,16.407,118.652,53.144,221.61,92.608,294.154,41.834,76.92,86.579,126.1,130.451,174.991" transform="translate(297.224 355.104)" fill="none" stroke="#fff" stroke-miterlimit="2" stroke-width="1" fill-rule="evenodd"/></g><g transform="translate(203.453 171.573)"><path d="M-35.2-347.713C21.092-112.385,46.351,177.261,32.245,458.8c-10.628,212.122-43.538,417.856-93.23,592.347-16.2,56.778-34.208,110.692-53.086,161.344-55.02,148.148-120.385,281.476-132.2,480.686-7.366,124.174,10.519,249.128,35.615,359.615,41.394,181.646,101.581,338.5,145.131,516.775,13.2,54.324,24.881,111.768,33.8,171.524,20.755,138.828,26.473,285.194,10.8,425.923-35.526,318.055-167.27,524.229-205.424,844.594-18.329,155.379-7.908,316.746,11.336,457.658,19.244,141,47.389,269.474,71.307,411.787,23.917,142.215,43.5,306.264,38.949,463.066-5,172.184-34.5,306.327-55.714,437.668q-2.316,14.322-4.55,29c-19.182,124.607-34.319,267.562-15.491,423.157q1.283,10.586,2.775,21.007C-161.1,6371.606-125.705,6473.8-87.8,6547.811c40.194,78.509,83.072,131.4,125.144,183.946" transform="translate(247.943 347.713)" fill="none" stroke="#fff" stroke-miterlimit="2" stroke-width="1" fill-rule="evenodd"/></g><g transform="translate(230.223 175.922)"><path d="M7.385-340.321C61.069-102.51,84.538,186.064,70.225,466.594,59.443,677.964,27.27,883.125-21.22,1058.623c-15.8,57.085-33.367,111.508-51.718,162.955-53.5,150.533-116.369,287.594-127.238,486.489-6.742,123.435,10.657,247.065,35.126,357.2,40.329,180.9,99.066,338.51,141.26,516.6,12.8,54.32,24.084,111.583,32.645,171.085,19.907,138.218,24.951,283.232,9.761,423.007-34.418,315.626-160.184,528.181-198.284,845.667-18.2,153.069-9.669,311.914,7.328,452.116,16.992,140.282,42.523,269.208,64.547,410.8,22.027,141.5,40.449,303.027,37.116,457.721-3.654,169.888-29.333,304.669-46.956,436.467q-1.922,14.376-3.765,29.076c-15.831,124.747-27.622,265.906-8.253,418.7q1.319,10.347,2.83,20.7c16.852,114.649,50.9,215.958,87.263,291.441,38.554,80.1,79.562,136.713,119.838,193.041" transform="translate(201.638 340.321)" fill="none" stroke="#fff" stroke-miterlimit="2" stroke-width="1" fill-rule="evenodd"/></g><g transform="translate(256.99 180.272)"><path d="M49.975-332.925c51.07,240.293,72.75,527.8,58.231,807.326C97.268,685.006,65.835,889.593,18.545,1066.109,3.14,1123.5-13.977,1178.437-31.8,1230.681c-51.983,152.926-112.358,293.736-122.273,492.306-6.128,122.7,10.789,245,34.637,354.8,39.262,180.17,96.551,338.53,137.384,516.433,12.4,54.317,23.289,111.391,31.486,170.646,19.061,137.6,23.431,281.273,8.718,420.074C24.841,3498.146-94.946,3717.1-133,4031.7c-18.069,150.761-11.428,307.079,3.322,446.564,14.742,139.566,37.653,268.936,57.786,409.814,20.131,140.782,37.4,299.777,35.287,452.371-2.312,167.586-24.173,303-38.2,435.254q-1.532,14.439-2.98,29.163c-12.485,124.825-20.928,264.3-1.017,414.222.906,6.793,1.869,13.588,2.888,20.325,17.072,112.641,49.784,213.179,84.592,290.139,36.908,81.7,76.052,142.044,114.529,202.047" transform="translate(155.339 332.925)" fill="none" stroke="#fff" stroke-miterlimit="2" stroke-width="1" fill-rule="evenodd"/></g><g transform="translate(283.75 184.621)"><path d="M92.566-325.534C141.022-82.742,160.912,203.684,146.189,482.2,135.1,692.052,104.4,896.064,58.31,1073.594c-15.007,57.7-31.681,113.149-48.974,166.193-50.47,155.325-108.355,299.9-117.316,498.139-5.509,121.953,10.927,242.929,34.15,352.379,38.195,179.429,94.037,338.549,133.51,516.262,12,54.313,22.491,111.211,30.327,170.206,18.213,136.99,21.908,279.308,7.675,417.144-32.2,310.764-146.007,536.141-184.007,847.842-17.936,148.447-13.181,302.228-.684,440.99,12.492,138.859,32.787,268.668,51.027,408.831,18.24,140.059,34.348,296.517,33.459,447-.971,165.267-19.006,301.324-29.448,434.043q-1.138,14.485-2.194,29.237C-43.305,5926.773-48.4,6064.5-27.942,6211.6c.927,6.688,1.91,13.321,2.944,19.953,17.3,110.627,48.666,210.335,81.922,288.834,35.266,83.3,72.542,147.331,109.217,211.134" transform="translate(109.05 325.534)" fill="none" stroke="#fff" stroke-miterlimit="2" stroke-width="1" fill-rule="evenodd"/></g><g transform="translate(310.509 188.967)"><path d="M135.159-318.146C181-72.84,199.1,212.508,184.175,490.018c-11.249,209.082-41.208,412.524-86.1,591.067-14.61,58.014-30.838,113.979-47.6,167.825-48.953,157.732-104.356,306.068-112.353,504-4.9,121.21,11.059,240.846,33.659,349.953C8.909,2281.547,63.3,2441.431,101.421,2618.955c11.6,54.316,21.694,111.025,29.166,169.767,17.365,136.371,20.388,277.333,6.632,414.2C106.133,3511.247-1.7,3743.07-39.648,4051.858c-17.806,146.126-14.94,297.366-4.692,435.408,10.24,138.14,27.916,268.4,44.267,407.847,16.349,139.343,31.3,293.244,31.631,441.621.371,162.958-13.73,299.684-20.692,432.831q-.737,14.558-1.409,29.32c-5.8,125.05-7.535,260.97,13.461,405.247.954,6.584,1.956,13.054,3,19.581a1393.027,1393.027,0,0,0,79.249,287.524c33.623,84.907,69.035,152.693,103.91,220.193" transform="translate(62.765 318.146)" fill="none" stroke="#fff" stroke-miterlimit="2" stroke-width="1" fill-rule="evenodd"/></g><g transform="translate(337.26 193.317)"><path d="M177.753-310.75c43.229,247.815,59.542,532.083,44.407,808.576-11.406,208.323-40.625,411.188-84.312,590.753-14.215,58.32-29.995,114.806-46.233,169.451C44.18,1418.181-8.742,1570.294-15.776,1767.9c-4.288,120.464,11.192,238.767,33.167,347.519,36.068,177.948,89.012,338.592,125.768,515.932,11.2,54.313,20.9,110.838,28.008,169.324,16.52,135.75,18.869,275.352,5.589,411.257C146.78,3517.812,44.924,3756.086,7.026,4061.963c-17.674,143.8-16.7,292.49-8.7,429.81,7.993,137.417,23.053,268.122,37.511,406.854,14.458,138.616,28.246,289.966,29.8,436.22,1.715,160.639-8.568,297.994-11.936,431.616q-.347,14.612-.626,29.4c-2.457,125.138-.838,259.357,20.7,400.743.98,6.421,2,12.843,3.059,19.208C94.573,6322.4,123.26,6420.5,153.412,6502.025c31.98,86.517,65.523,158.013,98.6,229.337" transform="translate(16.492 310.75)" fill="none" stroke="#fff" stroke-miterlimit="2" stroke-width="1" fill-rule="evenodd"/></g><g transform="translate(364.004 197.666)"><path d="M220.345-303.359c40.618,250.333,55.143,533.526,39.8,809C248.584,713.2,220.1,915.488,177.617,1096.084c-13.817,58.633-29.154,115.635-44.86,171.088-45.92,162.567-96.371,318.48-102.434,515.767C26.643,1902.657,41.652,2019.613,63,2128.019c35,177.2,86.5,338.616,121.895,515.767,10.8,54.3,20.1,110.658,26.849,168.884a1957.605,1957.605,0,0,1,4.545,408.307C187.428,3524.39,91.549,3769.149,53.7,4072.11,36.158,4213.576,35.247,4359.716,40.995,4496.3,46.737,4633,59.181,4764.16,71.746,4902.17c12.565,137.9,25.194,286.684,27.974,430.814,3.057,158.314-3.406,296.295-3.182,430.4q.047,14.676.159,29.483c.879,125.281,5.858,257.682,27.938,396.226,1,6.315,2.045,12.574,3.117,18.833,17.96,104.554,45.3,201.817,73.906,284.9,30.335,88.134,62.016,163.348,93.292,238.449" transform="translate(-29.767 303.359)" fill="none" stroke="#fff" stroke-miterlimit="2" stroke-width="1" fill-rule="evenodd"/></g><g transform="translate(390.741 202.014)"><path d="M262.943-295.967c38,252.864,50.74,534.965,35.191,809.431-11.714,206.791-39.459,408.5-80.747,590.117-13.42,58.953-28.309,116.473-43.487,172.735-44.4,165-92.382,324.708-97.474,521.672-3.074,118.969,11.466,234.585,32.194,342.641,33.936,176.455,83.984,338.633,118.021,515.6,10.4,54.3,19.307,110.47,25.69,168.44a2023.222,2023.222,0,0,1,3.5,405.342c-27.755,300.955-117.658,552.209-155.455,852.239-17.411,139.133-20.21,282.7-16.713,418.566,3.49,135.982,13.319,267.589,23.992,404.882,10.674,137.161,22.145,283.384,26.143,425.386,4.4,155.974,1.758,294.584,5.576,429.176q.434,14.731.942,29.559c4.117,125.368,12.555,256,35.179,391.7,1.026,6.209,2.086,12.305,3.17,18.457,18.184,102.518,44.186,198.942,71.234,283.579,28.694,89.754,58.506,168.757,87.983,247.644" transform="translate(-76.015 295.967)" fill="none" stroke="#fff" stroke-miterlimit="2" stroke-width="1" fill-rule="evenodd"/></g><g transform="translate(417.472 206.362)"><path d="M305.543-288.575c35.391,255.4,46.337,536.42,30.583,809.863C324.255,727.311,297.25,928.445,257.162,1111.1c-13.022,59.268-27.466,117.309-42.114,174.377-42.885,167.444-88.4,330.967-92.512,527.6-2.474,118.224,11.6,232.487,31.7,340.2,32.871,175.707,81.47,338.654,114.15,515.437,10,54.3,18.507,110.278,24.529,168,13.979,133.892,14.3,269.384,2.459,402.378-26.647,298.485-110.568,556.261-148.315,853.354-17.281,136.788-21.969,277.792-20.721,412.928,1.241,135.256,8.45,267.311,17.233,403.885,8.78,136.437,19.095,280.078,24.317,419.953,5.738,153.63,6.918,292.876,14.33,427.949q.824,14.786,1.725,29.649c7.467,125.507,19.252,254.373,42.417,387.154,1.053,6.045,2.129,12.09,3.228,18.08,18.406,100.478,43.063,196.118,68.563,282.2,27.051,91.438,55,174.181,82.674,256.867" transform="translate(-122.254 288.575)" fill="none" stroke="#fff" stroke-miterlimit="2" stroke-width="1" fill-rule="evenodd"/></g><g transform="translate(444.185 210.71)"><path d="M348.147-281.184c32.777,257.945,41.936,537.877,25.975,810.3-12.025,205.252-38.293,405.8-77.179,589.491-12.625,59.578-26.625,118.146-40.743,176.029-41.37,169.882-84.57,337.226-87.552,533.552-1.961,117.46,11.734,230.382,31.214,337.739,31.806,174.962,78.957,338.679,110.277,515.279,9.6,54.3,17.715,110.09,23.371,167.546,13.131,133.266,12.784,267.384,1.419,399.393-25.536,296.02-103.482,560.331-141.178,854.483-17.151,134.43-23.727,272.856-24.727,407.264-1.009,134.534,3.582,267.044,10.471,402.893,6.889,135.705,16.043,276.767,22.489,414.5,7.082,151.284,12.083,291.17,23.086,426.73q1.214,14.834,2.51,29.726c10.813,125.653,25.948,252.686,49.654,382.6,1.079,5.939,2.175,11.82,3.286,17.7,18.628,98.431,41.945,193.23,65.892,280.878,25.409,93.067,51.487,179.62,77.365,266.115" transform="translate(-168.461 281.184)" fill="none" stroke="#fff" stroke-miterlimit="2" stroke-width="1" fill-rule="evenodd"/></g><g transform="translate(468.617 215.059)"><path d="M391.368-273.792c30.164,260.5,37.532,539.337,21.366,810.74-12.182,204.487-37.711,404.452-75.4,589.178-12.227,59.9-25.782,118.993-39.373,177.692-39.852,172.339-80.552,343.524-82.592,539.516-1.335,116.718,11.873,228.273,30.727,335.283,30.742,174.21,76.445,338.7,106.406,515.118,9.2,54.294,16.917,109.9,22.21,167.1,12.283,132.644,11.264,265.38.376,396.414-24.426,293.537-96.395,564.4-134.038,855.6-17.021,132.078-25.486,267.922-28.738,401.593-3.257,133.812-1.282,266.779,3.714,401.9,5,134.972,12.991,273.448,20.661,409.026,8.424,148.935,17.245,289.449,31.84,425.5q1.608,14.915,3.3,29.808c14.164,125.808,32.645,251,56.895,378.1,1.1,5.775,2.216,11.493,3.344,17.267,18.847,96.437,40.823,190.391,63.215,279.552,23.766,94.7,47.979,185.021,72.058,275.336" transform="translate(-210.721 273.792)" fill="none" stroke="#fff" stroke-miterlimit="2" stroke-width="1" fill-rule="evenodd"/></g><g transform="translate(551.28 219.407)"><path d="M434.894-266.4c27.552,263.064,33.131,540.806,16.758,811.18-12.336,203.713-37.13,403.094-73.612,588.869-11.83,60.219-24.939,119.836-38,179.355C301.7,1487.8,263.5,1662.842,262.408,1858.5c-.713,115.973,12.006,226.163,30.238,332.813,29.675,173.462,73.93,338.736,102.533,514.961,8.8,54.291,16.12,109.716,21.051,166.655,11.437,132.016,9.741,263.372-.67,393.421-23.313,291.048-89.306,568.495-126.9,856.738-16.888,129.708-27.242,262.966-32.743,395.906-5.509,133.073-6.15,266.511-3.045,400.9,3.105,134.241,9.941,270.119,18.83,403.546,9.768,146.577,22.409,287.729,40.6,424.266q2,14.973,4.076,29.893c17.512,125.954,39.344,249.365,64.136,373.525,1.127,5.609,2.259,11.277,3.4,16.886,19.071,94.38,39.7,187.487,60.546,278.223,22.12,96.345,44.467,190.493,66.747,284.642" transform="translate(-251.017 266.4)" fill="none" stroke="#fff" stroke-miterlimit="2" stroke-width="1" fill-rule="evenodd"/></g><g transform="translate(576.469 223.755)"><path d="M478.671-259.009C522.4,206.764,501.1,706.411,418.991,1141.176c-45.021,238.388-109.1,470.724-109.3,732.533-.277,360.142,119.8,657.783,148.3,1011.352,34.263,425.14-67.137,835.43-121.471,1248.3-70.047,532.259-61.177,1122.443,24.662,1641.166,21.81,131.774,48.338,258.723,74.828,385.439q59.655,285.461,119.313,570.807" transform="translate(-289.72 259.009)" fill="none" stroke="#fff" stroke-miterlimit="2" stroke-width="1" fill-rule="evenodd"/></g><g transform="translate(612.208 222.559)"><path d="M513.088-261.042c24.573,268.559,28,548.133,11.066,820.062-10.466,168.082-28.692,333.424-53.671,490.733q-6.211,39.136-12.991,77.543c-36.9,208.79-87.116,410.862-96.344,632.1q-1.785,42.542-1.416,86.12c2.25,226.669,52.5,429.32,94.663,639.558,23.32,116.317,44.07,234.366,53.3,359.069,11.194,150.481,5.2,298.929-9.532,445.791C471.617,3553.7,416.744,3813.6,382.131,4076.5c-19.355,146.907-30.14,298.842-34.615,449.538-4.485,150.91-2.705,301.483,3.888,452.549,6.591,150.967,18.083,303.221,32.2,453.238,10.491,111.47,22.446,220.576,37.089,326.44q3.079,22.231,6.3,44.276c17.486,119.624,37.576,236.439,59.976,353.485,36.9,192.742,77.158,385.716,118.848,572.666" transform="translate(-345.037 261.042)" fill="none" stroke="#fff" stroke-miterlimit="2" stroke-width="1" fill-rule="evenodd"/></g><g transform="translate(646.422 221.361)"><path d="M547.885-263.079C571.619,3.34,575.016,280.347,558.84,550c-10,166.683-27.439,330.909-50.511,486.692q-5.731,38.763-11.955,76.721c-33.895,206.291-79.451,403.9-85.813,619.859q-1.239,41.508-.409,84.065c4.678,221.4,55.425,420.691,96.715,629.444,22.846,115.6,42.6,232.916,50.9,356.456,10.122,148.815,3.259,295.447-12.1,440.018-27.755,259.945-83.211,515.708-117.549,776.394-20.008,151.712-28.5,309.348-29.964,462.86-1.472,153.7,3.984,305.084,13.5,458.238,9.51,153.066,23.269,309.5,36.754,464.731,10.018,115.334,19.921,227.784,32.168,336.544q2.584,22.831,5.29,45.441c14.677,122.782,31.255,243.3,52.445,364.582,34.088,195.062,74.775,390.934,118.383,574.527" transform="translate(-397.918 263.079)" fill="none" stroke="#fff" stroke-miterlimit="2" stroke-width="1" fill-rule="evenodd"/></g><g transform="translate(679.439 220.164)"><path d="M582.986-265.113C605.88-.838,609.247,273.608,593.828,540.993c-9.532,165.272-26.187,328.4-47.351,482.645q-5.257,38.4-10.922,75.9c-30.886,203.8-71.786,396.934-75.279,607.607q-.7,40.484.593,82.01c7.108,216.135,58.362,412.068,98.77,619.335,22.373,114.884,41.121,231.465,48.507,353.844,9.052,147.15,1.315,291.971-14.663,434.25-28.971,256.12-85.011,507.74-119.072,766.218-20.663,156.532-26.866,319.87-25.315,476.188,1.542,156.5,10.674,308.68,23.111,463.926,12.432,155.16,28.453,315.769,41.307,476.217,9.549,119.216,17.4,235,27.254,346.65q2.078,23.43,4.268,46.618c11.871,125.935,24.956,250.051,44.918,375.673,31.339,197.264,72.391,396.151,117.918,576.388" transform="translate(-448.871 265.113)" fill="none" stroke="#fff" stroke-miterlimit="2" stroke-width="1" fill-rule="evenodd"/></g><g transform="translate(711.661 218.966)"><path d="M618.284-267.15c22.053,262.135,25.394,534.011,10.729,799.129-9.062,163.866-24.934,325.873-44.188,478.6q-4.777,38.026-9.888,75.078c-27.88,201.3-64.124,389.971-64.745,595.358q-.159,39.45,1.6,79.961c9.534,210.854,61.3,403.431,100.825,609.217,21.9,114.161,39.645,230.008,46.113,351.229,7.981,145.477-.631,288.482-17.23,428.474-30.188,252.295-86.81,499.777-120.594,756.044-21.316,161.341-25.23,330.379-20.666,489.508,4.558,159.3,17.365,312.279,32.722,469.619,15.354,157.252,33.64,322.034,45.862,487.7,9.079,123.091,14.879,242.206,22.337,356.749q1.579,24.03,3.252,47.8c9.062,129.1,18.678,256.731,37.388,386.815,28.656,199.236,70.006,401.311,117.451,578.249" transform="translate(-498.538 267.15)" fill="none" stroke="#fff" stroke-miterlimit="2" stroke-width="1" fill-rule="evenodd"/></g><g transform="translate(743.391 217.767)"><path d="M653.711-269.188c21.21,260,24.524,529.311,10.618,792.15-8.6,162.467-23.686,323.364-41.03,474.549q-4.3,37.67-8.852,74.263c-24.876,198.805-56.461,383-54.216,583.1q.387,38.427,2.606,77.907c11.962,205.593,64.227,394.807,102.877,599.108,21.422,113.445,38.06,228.586,43.718,348.616,6.779,143.847-2.575,285.006-19.8,422.7-31.4,248.476-88.6,491.821-122.117,745.88-21.971,166.145-23.592,340.89-16.014,502.824,7.571,162.108,24.055,315.887,42.331,475.313,18.276,159.351,38.828,328.31,50.417,499.187,8.609,126.974,12.36,249.42,17.423,366.86q1.073,24.621,2.231,48.971c6.256,132.25,12.432,263.3,29.86,397.906,26.04,201.15,67.621,406.587,116.986,580.11" transform="translate(-547.402 269.188)" fill="none" stroke="#fff" stroke-miterlimit="2" stroke-width="1" fill-rule="evenodd"/></g><g transform="translate(774.811 216.571)"><path d="M689.218-271.221c20.372,257.85,23.66,524.6,10.5,785.168-8.13,161.061-22.431,320.842-37.867,470.5q-3.823,37.3-7.819,73.447c-21.87,196.3-48.8,376.028-43.682,570.85q.929,37.4,3.611,75.851c14.391,200.324,67.159,386.175,104.929,588.99,20.947,112.734,36.569,227.135,41.324,346,5.687,142.174-4.519,281.521-22.361,416.93-32.621,244.644-90.406,483.856-123.641,735.7-22.621,170.959-21.954,351.406-11.362,516.151,10.582,164.9,30.742,319.487,51.942,481.006,21.2,161.444,44.012,334.575,54.97,510.673C717.9,5430.883,719.6,5556.67,722.273,5677q.574,25.238,1.212,50.151c3.447,135.41,6.217,269.874,22.33,409,23.491,202.947,65.239,411.8,116.521,582.028" transform="translate(-595.75 271.221)" fill="none" stroke="#fff" stroke-miterlimit="2" stroke-width="1" fill-rule="evenodd"/></g><g transform="translate(806.021 215.375)"><path d="M724.779-273.254c19.531,255.7,22.79,519.889,10.394,778.183-7.665,159.662-21.183,318.328-34.709,466.458q-3.342,36.924-6.783,72.626c-18.864,193.8-41.133,369.066-33.151,558.6q1.471,36.368,4.615,73.8c16.821,195.051,70.093,377.545,106.984,578.88,20.473,112.011,35.075,225.674,38.929,343.39,4.6,140.5-6.465,278.039-24.929,411.156-33.835,240.82-92.2,475.893-125.164,725.534-23.274,175.758-20.316,361.918-6.713,529.469,13.6,167.708,37.433,323.083,61.556,486.7,24.117,163.537,49.2,340.853,59.523,522.159,7.67,134.723,7.318,263.843,7.59,387.062q.072,25.838.2,51.329c.641,138.566.036,276.331,14.8,420.144,21.008,204.574,62.857,416.967,116.056,583.834" transform="translate(-643.745 273.254)" fill="none" stroke="#fff" stroke-miterlimit="2" stroke-width="1" fill-rule="evenodd"/></g><g transform="translate(837.092 214.176)"><path d="M760.378-275.292C779.068-21.726,782.3,239.89,770.659,495.917c-7.2,158.257-19.931,315.813-31.546,462.41q-2.869,36.56-5.75,71.8c-15.857,191.3-33.3,362.04-22.619,546.349,1.366,23.556,3.2,47.46,5.622,71.747,19.249,189.783,73.027,368.915,109.039,568.765,20,111.3,33.584,224.229,36.533,340.777,3.512,138.819-8.291,274.66-27.492,405.382-34.839,237.18-94,467.93-126.688,715.362-23.927,180.574-18.681,372.437-2.062,542.8,16.611,170.5,44.123,326.684,71.165,492.383,27.039,165.636,54.385,347.125,64.078,533.647,7.2,138.6,4.8,271.058,2.674,397.174q-.426,26.43-.821,52.5c-2.168,141.721-6.111,282.786,7.27,431.237,18.584,206.256,60.472,422.185,115.591,585.7" transform="translate(-691.498 275.292)" fill="none" stroke="#fff" stroke-miterlimit="2" stroke-width="1" fill-rule="evenodd"/></g><g transform="translate(868.064 212.98)"><path d="M796.006-277.325C813.853-25.906,817.059,233.147,806.173,486.9c-6.73,156.851-18.678,313.3-28.386,458.361q-2.388,36.186-4.714,70.983c-12.854,188.806-25.623,355.047-12.088,534.1,1.727,22.867,3.876,46.1,6.627,69.691,21.523,184.618,75.961,360.282,111.091,558.646,19.524,110.583,32.1,222.765,34.141,338.162,2.426,137.146-10.228,271.187-30.06,399.611-36.039,233.377-95.8,459.965-128.208,705.187-24.585,185.383-17.045,382.947,2.585,556.121,19.625,173.3,50.812,330.285,80.776,498.078,29.959,167.729,59.571,353.39,68.63,545.132,6.733,142.481,2.276,278.266-2.24,407.274q-.929,27.038-1.84,53.676c-4.977,144.879-12.218,289.127-.258,442.387,16.221,207.763,58.087,427.343,115.124,587.555" transform="translate(-739.074 277.325)" fill="none" stroke="#fff" stroke-miterlimit="2" stroke-width="1" fill-rule="evenodd"/></g><g transform="translate(898.967 211.782)"><path d="M831.651-279.363C848.66-30.083,851.84,226.4,841.708,477.884,835.447,633.33,824.282,788.665,816.485,932.2q-1.915,35.822-3.683,70.161c-9.845,186.307-17.944,348.055-1.554,521.85,2.091,22.178,4.574,44.734,7.631,67.63,23.944,179.374,78.895,351.658,113.146,548.535,19.052,109.867,30.612,221.309,31.746,335.555,1.342,135.463-12.167,267.716-32.625,393.836-37.243,229.575-97.6,452-129.733,695.009-25.235,190.2-15.407,393.472,7.236,569.446,22.638,176.106,57.5,333.893,90.387,503.772,32.881,169.823,64.757,359.668,73.183,556.621,6.263,146.352-.243,285.481-7.154,417.382q-1.431,27.637-2.864,54.847c-7.778,148.042-18.283,295.53-7.783,453.485,13.916,209.33,55.7,432.563,114.659,589.416" transform="translate(-786.521 279.363)" fill="none" stroke="#fff" stroke-miterlimit="2" stroke-width="1" fill-rule="evenodd"/></g><g transform="translate(929.819 210.585)"><path d="M867.314-281.4c16.168,247.134,19.319,501.05,9.946,750.263-5.8,154.04-16.178,308.26-22.065,450.269q-1.438,35.449-2.647,69.345c-6.841,183.807-10.271,341.055,8.978,509.588,2.455,21.489,5.273,43.367,8.636,65.58,26.367,174.127,81.828,343.025,115.2,538.422,18.572,109.144,29.125,219.846,29.349,332.935.263,133.784-14.106,264.25-35.191,388.06-38.45,225.767-99.4,444.043-131.256,684.84-25.89,195-13.771,403.977,11.885,582.762,25.652,178.912,64.191,337.493,100,509.466,35.805,171.921,69.943,365.939,77.741,568.114,5.791,150.228-2.765,292.689-12.073,427.487q-1.929,28.229-3.878,56.018c-10.589,151.2-24.317,301.871-15.315,464.576,11.664,210.9,53.32,437.781,114.194,591.334" transform="translate(-833.868 281.396)" fill="none" stroke="#fff" stroke-miterlimit="2" stroke-width="1" fill-rule="evenodd"/></g><g transform="translate(960.635 209.387)"><path d="M902.991-283.434c15.325,244.994,18.449,496.348,9.831,743.283C907.5,612.49,897.9,765.6,893.919,906.07q-.957,35.084-1.614,68.53c-3.832,181.307-2.6,334.058,19.509,497.333,2.818,20.806,5.974,42,9.643,63.531,28.791,168.877,84.762,334.394,117.255,528.3,18.1,108.427,27.646,218.384,26.955,330.321-.814,132.106-16.045,260.779-37.756,382.291-39.659,221.964-101.193,436.079-132.778,674.661C868.59,3650.86,883,3865.542,911.67,4047.133c28.665,181.707,70.88,341.1,109.607,515.161,38.725,174.015,75.13,372.212,82.294,579.6,5.321,154.112-5.287,299.907-16.99,437.6q-2.432,28.836-4.895,57.194c-13.4,154.354-30.308,308.212-22.846,475.727,9.46,212.349,50.935,442.943,113.729,593.139" transform="translate(-881.137 283.434)" fill="none" stroke="#fff" stroke-miterlimit="2" stroke-width="1" fill-rule="evenodd"/></g><g transform="translate(991.424 208.191)"><path d="M938.675-285.467c14.484,242.849,17.582,491.635,9.72,736.3-4.861,151.235-13.673,303.23-15.742,442.173q-.481,34.72-.578,67.708c-.829,178.807,5.061,327.06,30.041,485.084,3.18,20.111,6.67,40.634,10.647,61.475,31.216,163.625,87.694,325.762,119.308,518.193a1858.4,1858.4,0,0,1,24.561,327.708c-1.888,130.423-17.987,257.3-40.322,376.516-40.871,218.155-102.993,428.109-134.3,664.488-27.2,204.63-10.5,425.015,21.186,609.418,31.679,184.513,77.572,344.7,119.219,520.852,41.647,176.114,80.316,378.485,86.846,591.086,4.854,157.99-7.8,307.122-21.9,447.7q-2.934,29.438-5.914,58.372c-16.2,157.513-36.263,314.553-30.375,486.821,7.306,213.857,48.553,448.22,113.264,595" transform="translate(-928.345 285.467)" fill="none" stroke="#fff" stroke-miterlimit="2" stroke-width="1" fill-rule="evenodd"/></g><g transform="translate(1020.043 206.992)"><path d="M974.922-287.5c13.646,240.708,16.715,486.93,9.607,729.324-4.391,149.829-12.42,300.713-12.581,438.123q0,34.347.458,66.886c2.175,176.307,12.724,320.06,40.572,472.832,3.541,19.422,7.371,39.267,11.651,59.419,33.647,158.379,90.63,317.129,121.365,508.073a1790.327,1790.327,0,0,1,22.164,325.093c-2.96,128.739-19.931,253.828-42.887,370.733-42.087,214.346-104.79,420.154-135.823,654.322-27.851,209.439-8.862,435.527,25.835,622.736,34.692,187.318,84.261,348.3,128.83,526.557,44.566,178.195,85.5,384.745,91.4,602.566,4.382,161.861-10.327,314.331-26.82,457.812q-3.436,30.029-6.935,59.542c-19.011,160.667-42.174,320.895-37.9,497.913,5.194,215.366,46.168,453.438,112.8,596.92" transform="translate(-971.947 287.504)" fill="none" stroke="#fff" stroke-miterlimit="2" stroke-width="1" fill-rule="evenodd"/></g><g transform="translate(1046.297 205.796)"><path d="M1011.789-289.538c12.8,238.563,15.845,482.217,9.493,722.338-3.927,148.424-11.17,298.2-9.419,434.08q.47,33.983,1.489,66.065c5.184,173.813,20.384,313.067,51.106,460.576,3.9,18.734,8.072,37.9,12.658,57.37,36.08,153.122,93.562,308.5,123.415,497.955a1724.762,1724.762,0,0,1,19.772,322.481c-4.032,127.06-21.877,250.35-45.452,364.963-43.3,210.532-106.589,412.19-137.348,644.149-28.5,214.245-7.224,446.047,30.486,636.063,37.706,190.119,90.951,351.9,138.441,532.248,47.488,180.295,90.686,391.024,95.954,614.058,3.914,165.743-12.849,321.546-31.736,467.92q-3.935,30.638-7.952,60.724c-21.819,163.82-48.052,327.23-45.431,509.059,3.122,216.818,43.783,458.6,112.332,598.725" transform="translate(-1011.595 289.538)" fill="none" stroke="#fff" stroke-miterlimit="2" stroke-width="1" fill-rule="evenodd"/></g><g transform="translate(1071.234 204.597)"><path d="M1049.005-291.575c11.96,236.422,14.978,477.512,9.382,715.359-3.459,147.018-9.919,295.681-6.26,430.03q.95,33.609,2.525,65.248c8.19,171.307,28.039,306.073,61.637,448.317,4.264,18.044,8.771,36.529,13.663,55.308,38.515,147.875,96.5,299.869,125.472,487.847A1661.842,1661.842,0,0,1,1272.8,2230.4c-5.1,125.377-23.826,246.872-48.02,359.186-44.525,206.717-108.386,404.224-138.868,633.973-29.159,219.055-5.589,456.56,35.135,649.386,40.719,192.919,97.64,355.5,148.05,537.936,50.41,182.394,95.875,397.3,100.509,625.55,3.445,169.62-15.368,328.757-36.651,478.022q-4.437,31.236-8.97,61.9c-24.628,166.979-53.893,333.57-52.961,520.152,1.089,218.383,41.4,463.818,111.867,600.642" transform="translate(-1049.005 291.575)" fill="none" stroke="#fff" stroke-miterlimit="2" stroke-width="1" fill-rule="evenodd"/></g><g transform="translate(1095.623 203.401)"><path d="M1085.442-293.609c11.124,234.282,14.111,472.8,9.269,708.378-2.992,145.612-8.667,293.16-3.1,425.982q1.427,33.236,3.558,64.421c11.2,168.812,35.692,299.091,72.172,436.073,4.623,17.355,9.472,35.156,14.667,53.253,40.953,142.612,99.43,291.236,127.525,477.728,15.727,104.838,20.27,211.076,14.983,317.252-6.162,123.693-25.777,243.388-50.586,353.41-45.751,202.9-110.186,396.265-140.392,623.8-29.812,223.867-3.951,467.082,39.787,662.72,43.733,195.714,104.33,359.1,157.662,543.633,53.332,184.481,101.061,403.569,105.064,637.035,2.972,173.5-17.893,335.967-41.57,488.137q-4.939,31.83-9.989,63.071c-27.432,170.133-59.7,339.925-60.489,531.247-.913,219.894,39.016,469.04,111.4,602.5" transform="translate(-1085.442 293.609)" fill="none" stroke="#fff" stroke-miterlimit="2" stroke-width="1" fill-rule="evenodd"/></g><g transform="translate(1113.356 202.203)"><path d="M1110.722-295.646C1121-63.5,1123.963,172.448,1119.88,405.747c-2.527,144.212-7.417,290.643.06,421.931q1.908,32.88,4.594,63.611c14.2,166.312,43.34,292.108,82.7,423.808,4.981,16.672,10.17,33.8,15.672,51.2,43.393,137.342,102.364,282.6,129.579,467.607,15.253,104.126,18.8,209.619,12.589,314.637-7.222,122.014-27.728,239.909-53.151,347.638-46.98,199.064-111.985,388.286-141.917,613.621-30.465,228.677-2.313,477.594,44.436,676.044,46.749,198.52,111.021,362.7,167.273,549.321,56.254,186.581,106.25,409.841,109.617,648.522,2.505,177.376-20.41,343.178-46.483,498.245q-5.442,32.429-11.006,64.243c-30.241,173.3-65.468,346.317-68.019,542.4-2.884,221.46,36.634,474.2,110.935,604.364" transform="translate(-1110.722 295.646)" fill="none" stroke="#fff" stroke-miterlimit="2" stroke-width="1" fill-rule="evenodd"/></g><g transform="translate(1131.142 201.007)"><path d="M1135.976-297.679c9.443,230,12.374,463.38,9.048,694.412-2.06,142.807-6.164,288.127,3.223,417.882q2.381,32.507,5.625,62.789c17.209,163.812,50.986,285.138,93.237,411.557,5.34,15.983,10.874,32.417,16.677,49.147,45.836,132.072,105.3,273.969,131.634,457.494,14.778,103.4,17.339,208.156,10.192,312.017-8.279,120.336-29.679,236.42-55.717,341.868-48.208,195.232-113.782,380.321-143.437,603.441-31.12,233.5-.679,488.121,49.085,689.372,49.762,201.321,117.708,366.308,176.884,555.024C1491.6,4486,1543.859,4713.439,1546.6,4957.338c2.033,181.254-22.935,350.389-51.4,508.35q-5.944,33.037-12.025,65.42c-33.049,176.457-71.208,352.74-75.551,553.5-4.822,223.084,34.251,479.421,110.475,606.226" transform="translate(-1135.976 297.679)" fill="none" stroke="#fff" stroke-miterlimit="2" stroke-width="1" fill-rule="evenodd"/></g><g transform="translate(1148.988 199.808)"><path d="M1161.218-299.717c8.6,227.85,11.507,458.677,8.932,687.43-1.59,141.407-4.911,285.617,6.386,413.839q2.858,32.142,6.661,61.968c20.215,161.311,58.631,278.173,103.768,399.3,5.7,15.3,11.572,31.051,17.683,47.1,48.276,126.791,108.229,265.33,133.684,447.375,14.3,102.686,15.879,206.7,7.8,309.409-9.334,118.658-31.635,232.93-58.285,336.091-49.442,191.395-115.579,372.356-144.96,593.266-31.773,238.305.959,498.636,53.737,702.7,52.775,204.122,124.4,369.912,186.493,560.715,62.1,190.774,116.62,422.389,118.725,671.505,1.566,185.138-25.452,357.607-56.316,518.466q-6.439,33.629-13.042,66.591c-35.856,179.611-76.914,359.181-83.079,564.653-6.74,224.652,31.867,484.642,110.007,608.034" transform="translate(-1161.218 299.717)" fill="none" stroke="#fff" stroke-miterlimit="2" stroke-width="1" fill-rule="evenodd"/></g><g transform="translate(1166.896 198.612)"><path d="M1186.443-301.75c7.759,225.7,10.64,453.961,8.821,680.445-1.125,140-3.661,283.095,9.544,409.788q3.339,31.769,7.7,61.151c23.219,158.811,66.275,271.213,114.3,387.039q9.091,21.924,18.688,45.041c50.822,121.266,111.163,256.7,135.741,437.253,13.827,101.969,14.417,205.247,5.4,306.794-10.385,116.991-33.589,229.433-60.85,330.314-50.677,187.556-117.378,364.394-146.484,583.088-32.425,243.122,2.6,509.156,58.388,716.031,55.786,206.922,131.087,373.513,196.1,566.4,65.02,192.868,121.806,428.663,123.28,683,1.094,189.01-27.974,364.817-61.233,528.569q-6.941,34.228-14.061,67.767c-38.664,182.771-82.592,365.651-90.606,575.748-8.638,226.392,29.482,489.86,109.542,609.95" transform="translate(-1186.443 301.75)" fill="none" stroke="#fff" stroke-miterlimit="2" stroke-width="1" fill-rule="evenodd"/></g><g transform="translate(1184.869 197.413)"><path d="M1211.655-303.788c6.918,223.569,9.773,449.252,8.71,673.469-.657,138.589-2.409,280.579,12.7,405.739q3.816,31.4,8.73,60.324c26.225,156.316,73.916,264.277,124.831,374.793q9.63,20.9,19.695,42.985c53.25,116,114.1,248.062,137.793,427.139,13.355,101.246,12.962,203.8,3.011,304.174-11.435,115.324-35.55,225.938-63.415,324.543-51.92,183.7-119.178,356.423-148.007,572.912-33.08,247.928,4.233,519.672,63.035,729.36,58.8,209.724,137.776,377.11,205.718,572.1,67.937,194.961,126.99,434.936,127.833,694.492.624,192.883-30.5,372.029-66.149,538.674q-7.443,34.837-15.079,68.944c-41.471,185.924-88.243,372.156-98.136,586.845-10.51,228.075,27.1,495.081,109.077,611.812" transform="translate(-1211.655 303.788)" fill="none" stroke="#fff" stroke-miterlimit="2" stroke-width="1" fill-rule="evenodd"/></g><g transform="translate(1202.913 196.217)"><path d="M1236.859-305.821c6.078,221.422,8.9,444.541,8.6,666.478-.19,137.189-1.159,278.062,15.865,401.694q4.293,31.031,9.765,59.508c29.229,153.809,81.482,257.56,135.363,362.526q10.153,19.926,20.7,40.929c55.678,110.726,117.031,239.433,139.846,417.023,12.882,100.535,11.512,202.351.617,301.565-12.478,113.651-37.576,222.314-65.978,318.759-53.293,179.624-120.977,348.461-149.531,562.745-33.734,252.734,5.87,530.187,67.686,742.681,61.816,212.517,144.468,380.717,215.327,577.789s132.176,441.21,132.388,705.976c.152,196.771-33.016,379.251-71.063,548.8q-7.946,35.429-16.1,70.115c-44.277,189.085-93.866,378.7-105.664,598-12.367,229.815,24.715,500.243,108.613,613.673" transform="translate(-1236.859 305.821)" fill="none" stroke="#fff" stroke-miterlimit="2" stroke-width="1" fill-rule="evenodd"/></g><g transform="translate(1221.029 195.018)"><path d="M1262.051-307.859c5.237,219.281,8.036,439.832,8.486,659.5.277,135.783.094,275.546,19.025,397.645q4.77,30.658,10.8,58.686c32.238,151.309,89.147,250.588,145.9,350.273q10.7,18.892,21.7,38.879c58.106,105.449,119.963,230.793,141.9,406.9,12.408,99.818,10.059,200.911-1.778,298.951-13.521,112-39.522,218.835-68.546,312.988-54.51,175.791-122.774,340.494-151.054,552.563-34.386,257.552,7.508,540.709,72.338,756.011,64.827,215.33,151.155,384.327,224.936,583.488S1823.122,4555.513,1822.7,4825.5c-.315,200.65-35.538,386.464-75.98,558.9q-8.448,36.028-17.117,71.291c-47.086,192.244-99.466,385.271-113.194,609.094-14.207,231.614,22.333,505.463,108.148,615.536" transform="translate(-1262.051 307.859)" fill="none" stroke="#fff" stroke-miterlimit="2" stroke-width="1" fill-rule="evenodd"/></g><g transform="translate(1239.223 193.82)"><path d="M1287.239-309.9c4.4,217.14,7.169,435.12,8.373,652.521.744,134.376,1.344,273.023,22.188,393.594q5.247,30.293,11.833,57.864C1364.876,942.9,1426.441,1037.7,1486.06,1132.1q11.237,17.858,22.708,36.817c60.537,100.184,122.9,222.163,143.955,396.779,11.931,99.1,8.669,199.517-4.172,296.335-14.494,110.4-41.466,215.35-71.114,307.215-55.724,171.963-124.571,332.526-152.576,542.384-35.039,262.363,9.144,551.224,76.987,769.338S1659.7,3868.9,1736.4,4070.151s142.548,453.758,141.5,728.958c-.785,204.528-38.057,393.681-80.9,569.016q-8.947,36.628-18.139,72.462c-49.89,195.4-105.038,391.885-120.719,620.188-16.036,233.471,19.945,510.684,107.68,617.454" transform="translate(-1287.239 309.896)" fill="none" stroke="#fff" stroke-miterlimit="2" stroke-width="1" fill-rule="evenodd"/></g><g transform="translate(1257.497 192.624)"><path d="M1312.418-311.929q5.333,322.491,8.26,645.532c1.212,132.976,2.6,270.507,25.348,389.55q5.723,29.92,12.868,57.042c38.248,146.313,104.474,236.65,166.96,325.758q11.783,16.833,23.715,34.766c62.962,94.908,125.831,213.528,146.01,386.665,11.457,98.378,7.193,198.066-6.571,293.721-15.564,108.719-43.407,211.866-73.677,301.432-56.938,168.142-126.368,324.565-154.1,532.208-35.694,267.175,10.78,561.753,81.636,782.675s164.539,391.526,244.161,594.875,147.737,460.032,146.051,740.457c-1.255,208.4-40.579,400.894-85.813,579.122q-9.449,37.23-19.155,73.641c-52.7,198.558-110.595,398.535-128.252,631.344-17.85,235.329,17.563,515.847,107.215,619.259" transform="translate(-1312.418 311.929)" fill="none" stroke="#fff" stroke-miterlimit="2" stroke-width="1" fill-rule="evenodd"/></g><g transform="translate(1292.642 188.441)"><path d="M1401.114-326.017q5.789,307.778,11.129,617.641c2.187,127.628,4.774,260.115,28.93,374.567,36.74,174.072,114.618,269.762,185.52,363.048S1773,1241.91,1792.783,1430.695c18.377,175.372-16.843,354.545-59.13,507-8.27,29.952-16.85,58.581-25.51,85.719-24.614,76.673-50.856,149.313-74.532,225.287-27.374,87.764-50.769,181.3-63.769,291.69q-3.711,31.652-6.152,64.01c-10.539,137.818-5.051,279.8,12.779,413.432,15.4,115.584,39.9,226.119,69.112,323.513,64.579,215.5,150.82,387.593,228.978,584.257q6.656,16.741,13.227,33.73c49.62,128.437,95.819,275.874,123.078,437.485,17.491,103.725,27.16,212.753,25.765,325.338-2.992,243.594-57.181,466.352-112.72,670.878-55.569,204.688-115.449,411.756-135.225,651.468-19.774,239.672,13.559,524.4,102.2,632.481" transform="translate(-1401.114 326.017)" fill="none" stroke="#fff" stroke-miterlimit="2" stroke-width="1" fill-rule="evenodd"/></g><g transform="translate(1341.6 176.559)"><path d="M1464.605-338.071q7.508,296.364,14.113,596.869c2.691,123.711,5.7,252.283,29.349,363.7,35.974,169.445,111.294,264.045,179.645,356.416,68.356,92.389,141.505,209.464,159.4,393.712,17.153,176.633-21.321,356.428-60.72,511.714-7.744,30.522-15.525,59.627-23.356,86.929-22.159,77.257-45.19,148.749-65.894,223.15-23.954,85.92-43.8,178.17-55.088,288.818q-3.2,31.769-5.376,64.511c-9.421,139.182-6.5,281.768,8.672,415.386a2214.777,2214.777,0,0,0,61.9,325.993c59.253,219.285,140.809,398.567,217.613,600.694q6.544,17.2,13.022,34.611c48.965,131.717,95.6,280.875,122.541,444.733a1840.578,1840.578,0,0,1,24.546,328.93c-4.021,245.337-58.966,470.341-114.543,677.673-55.63,207.639-114.765,418.268-134.669,660.505-19.894,242.088,11.941,527.606,97.655,643.667" transform="translate(-1464.605 338.071)" fill="none" stroke="#fff" stroke-miterlimit="2" stroke-width="1" fill-rule="evenodd"/></g><g transform="translate(1398.331 170.157)"><path d="M1528.072-350.121q9.221,285,17.093,576.211c3.2,119.823,6.62,244.5,29.771,352.9,35.205,164.845,107.969,258.369,173.772,349.82,65.8,91.5,136.637,206.363,152.7,386.02,15.922,177.974-25.724,358.424-62.307,516.4-7.205,31.123-14.217,60.638-21.2,88.142-19.743,77.742-39.529,148.184-57.256,221.015-20.535,84.1-36.836,175.062-46.406,285.971q-2.7,31.9-4.6,65c-8.306,140.545-7.947,283.72,4.565,417.344a2321.6,2321.6,0,0,0,54.678,328.455c53.932,223.042,130.8,409.488,206.25,617.046q6.421,17.653,12.818,35.488c48.3,134.974,95.366,285.846,122,451.948a1858.234,1858.234,0,0,1,23.327,332.493c-5.046,247.061-60.751,474.306-116.359,684.433-55.7,210.578-114.088,424.748-134.117,669.44-20.015,244.493,10.319,530.914,93.107,654.912" transform="translate(-1528.072 350.121)" fill="none" stroke="#fff" stroke-miterlimit="2" stroke-width="1" fill-rule="evenodd"/></g><g transform="translate(1439.029 163.068)"><path d="M1591.51-362.171C1598.8-179.7,1605.572,5.9,1611.583,193.515c3.707,115.954,7.544,236.763,30.19,342.156,34.439,160.28,104.645,252.725,167.9,343.279,63.259,90.606,131.706,203.358,146.017,378.373,14.665,179.391-30.132,360.443-63.9,521.072-6.665,31.716-12.911,61.633-19.049,89.346-17.324,78.207-33.866,147.63-48.618,218.9-17.115,82.285-29.978,171.929-37.723,283.146-1.486,21.339-2.715,43.181-3.823,65.5-7.188,141.891-9.39,285.672.463,419.288a2430.693,2430.693,0,0,0,47.462,330.92c48.6,226.781,120.787,420.34,194.883,633.3q6.309,18.1,12.615,36.36c47.645,138.22,95.14,290.8,121.456,459.124a1875.934,1875.934,0,0,1,22.111,336.04c-6.075,248.8-62.541,478.281-118.183,691.179-55.757,213.5-113.4,431.188-133.556,678.334-20.14,246.946,8.7,534.153,88.557,666.043" transform="translate(-1591.51 362.171)" fill="none" stroke="#fff" stroke-miterlimit="2" stroke-width="1" fill-rule="evenodd"/></g><g transform="translate(1479.663 155.977)"><path d="M1654.914-374.225c8.436,174.993,16.224,353.881,23.055,535.281,4.216,112.113,8.47,229.079,30.612,331.489,33.673,155.737,101.321,247.119,162.026,336.772,60.71,89.721,126.708,200.446,139.323,370.779,13.391,180.881-34.531,362.458-65.487,525.716-6.126,32.311-11.6,62.612-16.9,90.538-14.908,78.659-28.2,147.079-39.975,216.8-13.7,80.475-23.036,168.86-29.043,280.333-1.154,21.426-2.115,43.424-3.045,65.987-6.073,143.247-10.84,287.608-3.644,421.227a2539.522,2539.522,0,0,0,40.242,333.362c43.282,230.507,110.781,431.158,183.523,649.484q6.189,18.554,12.41,37.228c46.984,141.448,94.911,295.723,120.915,466.268a1892.813,1892.813,0,0,1,20.892,339.576c-7.1,250.511-64.326,482.217-120,697.876-55.818,216.412-112.719,437.6-133,687.187-20.263,249.329,7.082,537.434,84.008,677.174" transform="translate(-1654.914 374.225)" fill="none" stroke="#fff" stroke-miterlimit="2" stroke-width="1" fill-rule="evenodd"/></g><g transform="translate(1520.238 148.886)"><path d="M1718.293-386.279c9.575,167.558,18.379,339.775,26.035,515,4.724,108.289,9.395,221.435,31.033,320.886,32.9,151.215,97.994,241.543,156.149,330.305,58.164,88.836,121.649,197.609,132.631,363.22,12.1,182.433-38.922,364.49-67.072,530.345-5.586,32.9-10.3,63.586-14.742,91.729-12.495,79.087-22.535,146.528-31.337,214.71-10.281,78.683-16.086,165.816-20.362,277.544-.822,21.509-1.518,43.661-2.267,66.473-4.957,144.587-12.288,289.543-7.754,423.162a2648.144,2648.144,0,0,0,33.028,335.806c37.959,234.208,100.769,441.9,172.16,665.575q6.07,19.006,12.206,38.086c46.325,144.666,94.685,300.624,120.375,473.376a1909.655,1909.655,0,0,1,19.673,343.089c-8.132,252.221-66.118,486.15-121.825,704.556-55.885,219.311-112.038,443.975-132.443,695.991-20.384,251.759,5.461,540.647,79.456,688.252" transform="translate(-1718.293 386.279)" fill="none" stroke="#fff" stroke-miterlimit="2" stroke-width="1" fill-rule="evenodd"/></g><g transform="translate(1560.749 141.797)"><path d="M1781.639-398.329c10.722,160.168,20.538,325.749,29.02,494.844,5.23,104.488,10.315,213.838,31.45,310.337,32.136,146.733,94.67,236,150.276,323.88,55.615,87.969,116.526,194.86,125.94,355.721,10.772,184.053-43.309,366.533-68.662,534.959-5.042,33.5-8.988,64.544-12.587,92.915-10.088,79.491-16.816,146.017-22.7,212.634-6.8,76.935-9.139,162.792-11.68,274.776-.489,21.591-.918,43.9-1.494,66.964-3.84,145.92-13.73,291.466-11.856,425.092a2751.98,2751.98,0,0,0,25.808,338.236c32.637,237.887,90.763,452.589,160.8,681.583q5.962,19.447,12,38.95c45.667,147.857,94.456,305.5,119.836,480.448a1925.692,1925.692,0,0,1,18.454,346.59c-9.161,253.929-67.9,490.062-123.644,711.2-55.948,222.192-111.358,450.328-131.889,704.764-20.5,254.122,3.84,543.908,74.908,699.22" transform="translate(-1781.639 398.329)" fill="none" stroke="#fff" stroke-miterlimit="2" stroke-width="1" fill-rule="evenodd"/></g><g transform="translate(1601.2 134.706)"><path d="M1844.956-410.384c11.866,152.82,22.7,311.808,32,474.8,5.738,100.716,11.24,206.284,31.874,299.859,31.368,142.27,91.346,230.5,144.4,317.5,53.064,87.1,111.334,192.172,119.245,348.255,9.412,185.733-47.69,368.579-70.249,539.549-4.5,34.1-7.687,65.5-10.435,94.09-7.682,79.887-11.141,145.47-14.058,210.582-3.368,75.148-2.185,159.792-3,272.02-.159,21.678-.32,44.143-.715,67.446-2.727,147.254-15.183,293.381-15.966,427.021a2852.076,2852.076,0,0,0,18.594,340.649c27.312,241.559,80.747,463.229,149.43,697.517q5.843,19.886,11.8,39.8c45.01,151.031,94.229,310.353,119.293,487.49a1940.663,1940.663,0,0,1,17.238,350.078c-10.19,255.62-69.69,493.951-125.465,717.818-56.01,225.062-110.675,456.649-131.33,713.542-20.629,256.419,2.219,547.042,70.36,710.135" transform="translate(-1844.956 410.384)" fill="none" stroke="#fff" stroke-miterlimit="2" stroke-width="1" fill-rule="evenodd"/></g><g transform="translate(1641.595 127.618)"><path d="M1908.247-422.434c13.008,145.51,24.852,297.944,34.979,454.867,6.244,96.965,12.165,198.782,32.293,289.444,30.6,137.835,88.017,225.025,138.53,311.153,50.516,86.235,106.081,189.554,112.554,340.841,8.019,187.464-52.065,370.631-71.839,544.118-3.953,34.692-6.381,66.441-8.279,95.271-5.282,80.26-5.473,144.922-5.42,208.534.058,73.371,4.767,156.811,5.682,269.289.178,21.76.279,44.383.065,67.932-1.609,148.577-16.631,295.3-20.071,428.934a2945.624,2945.624,0,0,0,11.37,343.06c21.99,245.209,70.741,473.814,138.07,713.37q5.727,20.331,11.594,40.656c44.347,154.2,94,315.179,118.752,494.494a1955.324,1955.324,0,0,1,16.019,353.547c-11.215,257.323-71.475,497.838-127.283,724.41-56.076,227.922-110,462.943-130.776,722.236-20.75,258.819.6,550.278,65.81,721" transform="translate(-1908.247 422.434)" fill="none" stroke="#fff" stroke-miterlimit="2" stroke-width="1" fill-rule="evenodd"/></g><g transform="translate(1681.927 120.526)"><path d="M1971.5-434.488c14.152,138.246,27.013,284.169,37.964,435.058,6.752,93.225,13.087,191.316,32.714,279.083,29.833,133.425,84.7,219.582,132.653,304.838,47.97,85.385,100.767,187,105.864,333.476,6.581,189.243-56.432,372.68-73.426,548.671-3.409,35.29-5.083,67.375-6.128,96.441-2.893,80.626.2,144.368,3.218,206.5,3.483,71.593,11.729,153.846,14.366,266.569.513,21.846.879,44.621.843,68.411-.494,149.893-18.078,297.2-24.18,430.851-5.425,115.972-3.5,233.47,4.155,345.455,16.667,248.845,60.732,484.349,126.708,729.139q5.6,20.766,11.386,41.5c43.689,157.344,93.777,319.988,118.212,501.464,15.705,116.761,20.586,236.089,14.8,357.006-12.244,259.005-73.263,501.7-129.107,730.975-56.134,230.763-109.311,469.2-130.218,730.88-20.87,261.151-1.019,553.446,61.262,731.866" transform="translate(-1971.501 434.488)" fill="none" stroke="#fff" stroke-miterlimit="2" stroke-width="1" fill-rule="evenodd"/></g><g transform="translate(1722.207 113.438)"><path d="M2034.735-446.538c15.3,131.024,29.169,270.462,40.943,415.354,7.26,89.523,14.01,183.9,33.134,268.788,29.068,129.042,81.371,214.172,126.782,298.568,45.419,84.536,95.388,184.494,99.17,326.151,5.1,191.06-60.792,374.735-75.016,553.208-2.857,35.879-3.787,68.3-3.972,97.605-.513,80.98,5.861,143.825,11.859,204.484,6.9,69.831,18.688,150.907,23.048,263.868.843,21.939,1.5,44.86,1.616,68.9.752,151.2-19.526,299.1-28.282,432.748-7.742,116.033-8.325,234.28-3.064,347.859,11.341,252.461,50.723,494.829,115.343,744.835q5.492,21.2,11.185,42.344c43.029,160.471,93.547,324.769,117.67,508.41,15.508,118.173,19.856,238.616,13.583,360.446-13.272,260.684-75.052,505.546-130.928,737.506-56.2,233.594-108.629,475.439-129.663,739.493-20.991,263.531-2.64,556.607,56.714,742.628" transform="translate(-2034.735 446.538)" fill="none" stroke="#fff" stroke-miterlimit="2" stroke-width="1" fill-rule="evenodd"/></g><g transform="translate(1762.43 106.347)"><path d="M2097.939-458.592c16.438,123.842,31.327,256.837,43.923,395.77C2149.63,23,2156.8,113.7,2175.417,195.723c28.3,124.682,78.046,208.794,120.907,292.333,42.873,83.691,89.951,182.03,92.478,318.867,3.56,192.908-65.14,376.781-76.6,557.724-2.31,36.465-2.493,69.223-1.819,98.759,1.859,81.339,11.524,143.29,20.5,202.481,10.317,68.074,25.652,147.979,31.729,261.189,1.18,22.019,2.1,45.1,2.394,69.374,1.869,152.51-20.971,300.982-32.389,434.655-10.055,116.079-13.148,235.087-10.281,350.236,6.02,256.059,40.712,505.261,103.978,760.451q5.38,21.644,10.982,43.182c42.372,163.59,93.321,329.527,117.13,515.315,15.308,119.585,19.126,241.148,12.365,363.875-14.3,262.36-76.84,509.378-132.749,744.016-56.261,236.41-107.948,481.641-129.1,748.062-21.116,265.843-4.261,559.807,52.164,753.394" transform="translate(-2097.939 458.592)" fill="none" stroke="#fff" stroke-miterlimit="2" stroke-width="1" fill-rule="evenodd"/></g><g transform="translate(1802.596 99.256)"><path d="M2161.114-470.646C2178.7-353.94,2194.6-227.351,2208.022-94.355c8.272,82.16,15.857,169.18,33.974,248.367,27.533,120.349,74.722,203.452,115.034,286.137,40.322,82.852,84.452,179.6,85.781,311.628,1.968,194.782-69.481,378.822-78.191,562.224-1.756,37.055-1.2,70.138.337,99.914,4.223,81.69,17.182,142.756,29.135,200.491,13.732,66.333,32.621,145.069,40.411,258.529,1.518,22.1,2.674,45.328,3.173,69.841,2.852,153.823-22.419,302.869-36.5,436.558-12.369,116.125-17.97,235.887-17.5,352.6.7,259.641,30.7,515.645,92.615,776q5.261,22.063,10.775,44.016c41.711,166.688,93.094,334.264,116.591,522.192,15.108,120.985,18.394,243.658,11.146,367.286-15.33,264.032-78.627,513.2-134.57,750.5-56.321,239.216-107.266,487.818-128.551,756.655-21.234,268.148-5.878,562.888,47.618,764" transform="translate(-2161.114 470.646)" fill="none" stroke="#fff" stroke-miterlimit="2" stroke-width="1" fill-rule="evenodd"/></g><g transform="translate(1842.708 92.167)"><path d="M2224.26-482.7c18.729,109.6,35.646,229.815,49.89,356.919,8.783,78.509,16.782,161.881,34.4,238.24,26.765,116.039,71.4,198.136,109.159,279.976,37.775,82.019,78.9,177.209,79.092,304.435.3,196.67-73.822,380.855-79.779,566.7a894.458,894.458,0,0,0,2.489,101.062c6.576,82.047,22.841,142.231,37.775,198.509,17.142,64.608,39.59,142.181,49.092,255.879,1.853,22.186,3.274,45.57,3.948,70.324,3.969,155.118-23.867,304.742-40.6,438.443-14.685,116.178-22.792,236.691-24.717,354.975-4.628,263.206,20.692,525.966,81.25,791.461q5.145,22.5,10.575,44.846c41.052,169.776,92.866,338.985,116.046,529.041,14.911,122.38,17.667,246.163,9.93,370.686-16.359,265.686-80.415,517-136.389,756.952-56.386,242.013-106.584,493.963-128,765.148-21.357,270.443-7.5,566.071,43.068,774.669" transform="translate(-2224.26 482.696)" fill="none" stroke="#fff" stroke-miterlimit="2" stroke-width="1" fill-rule="evenodd"/></g><g transform="translate(1882.773 85.078)"><path d="M2287.389-494.746c19.871,102.524,37.8,216.411,52.869,337.65,9.286,74.884,17.7,154.636,34.815,228.175,26,111.754,68.072,192.85,103.287,273.852,35.227,81.185,73.284,174.835,72.4,297.28-1.434,198.563-78.15,382.883-81.369,571.16a812.363,812.363,0,0,0,4.644,102.207c8.927,82.419,28.5,141.716,46.414,196.551,20.552,62.892,46.563,139.293,57.774,253.247,2.19,22.272,3.871,45.805,4.726,70.794,5.085,156.408-25.314,306.615-44.71,440.329-16.994,116.238-27.613,237.494-31.929,357.327-9.953,266.762,10.678,536.257,69.885,806.869q5.03,22.922,10.37,45.672c40.389,172.851,92.637,343.679,115.507,535.857,14.711,123.767,16.934,248.652,8.708,374.07-17.382,267.351-82.2,520.792-138.21,763.382-56.449,244.79-105.9,500.094-127.438,773.611-21.48,272.786-9.118,569.188,38.518,785.237" transform="translate(-2287.389 494.746)" fill="none" stroke="#fff" stroke-miterlimit="2" stroke-width="1" fill-rule="evenodd"/></g><g transform="translate(1922.782 77.987)"><path d="M2350.485-506.8c21.015,95.5,39.96,203.084,55.851,318.5,9.794,71.273,18.63,147.412,35.237,218.159,25.228,107.492,64.748,187.594,97.412,267.762,32.678,80.368,67.616,172.474,65.706,290.164-3.254,200.452-82.474,384.9-82.954,575.605a746.427,746.427,0,0,0,6.793,103.346c11.273,82.8,34.155,141.211,55.054,194.594,23.961,61.2,53.537,136.433,66.458,250.642,2.524,22.346,4.468,46.034,5.5,71.256,6.2,157.7-26.765,308.481-48.815,442.215-19.309,116.281-32.437,238.294-39.151,359.674-15.277,270.295.672,546.486,58.525,822.19q4.911,23.335,10.166,46.488c39.732,175.91,92.408,348.357,114.965,542.64,14.515,125.154,16.2,251.135,7.491,377.443-18.413,269-83.987,524.567-140.031,769.789-56.511,247.555-105.221,506.188-126.881,782.031-21.6,275.062-10.739,572.348,33.97,795.81" transform="translate(-2350.485 506.8)" fill="none" stroke="#fff" stroke-miterlimit="2" stroke-width="1" fill-rule="evenodd"/></g><g transform="translate(1962.742 70.899)"><path d="M2413.56-518.85c22.156,88.511,42.116,189.83,58.831,299.435,10.3,67.688,19.555,140.24,35.656,208.2,24.464,103.254,61.426,182.373,91.539,261.708,30.13,79.545,61.9,170.123,59.014,283.089-5.165,202.323-86.791,386.907-84.541,580.037a691.778,691.778,0,0,0,8.949,104.481c13.61,83.182,39.763,140.82,63.69,192.649,27.321,59.65,60.515,133.585,75.136,248.043,2.869,22.432,5.071,46.273,6.282,71.734,7.318,158.979-28.21,310.336-52.923,444.086-21.621,116.343-37.26,239.088-46.368,362.021-20.6,273.809-9.339,556.671,47.16,837.438q4.795,23.765,9.96,47.313c39.074,178.945,92.184,353.01,114.425,549.4,14.315,126.531,15.477,253.6,6.272,380.8-19.439,270.641-85.774,528.33-141.85,776.163-56.577,250.32-104.542,512.26-126.327,790.424-21.721,277.33-12.355,575.444,29.422,806.284" transform="translate(-2413.56 518.85)" fill="none" stroke="#fff" stroke-miterlimit="2" stroke-width="1" fill-rule="evenodd"/></g><g transform="translate(2002.653 63.808)"><path d="M2476.61-530.9c23.3,81.561,44.277,176.646,61.813,280.486,10.809,64.116,20.478,133.1,36.075,198.3,23.7,99.038,58.1,177.175,85.666,255.687,27.582,78.738,56.134,167.775,52.325,276.059-7.183,204.158-91.107,388.9-86.133,584.443a647.138,647.138,0,0,0,11.1,105.61c15.947,83.579,45.428,140.329,72.333,190.722,30.737,57.974,67.489,130.746,83.816,245.459,3.2,22.517,5.67,46.5,7.058,72.2,8.433,160.26-29.656,312.183-57.027,445.956-23.939,116.4-42.083,239.885-53.585,364.351-25.924,277.316-19.348,566.811,35.8,852.623q4.679,24.19,9.758,48.122c38.414,181.983,91.955,357.642,113.885,556.126,14.116,127.912,14.745,256.067,5.052,384.145-20.468,272.282-87.559,532.077-143.668,782.52-56.639,253.056-103.86,518.3-125.771,798.829-21.846,279.587-13.979,578.528,24.871,816.709" transform="translate(-2476.61 530.905)" fill="none" stroke="#fff" stroke-miterlimit="2" stroke-width="1" fill-rule="evenodd"/></g><g transform="translate(2042.514 56.719)"><path d="M2539.635-542.955c24.445,74.647,46.435,163.527,64.8,261.628,11.317,60.569,21.4,126.005,36.5,188.45,22.927,94.846,54.772,172.007,79.791,249.7,25.032,77.925,50.313,165.413,45.628,269.063-9.311,205.943-95.41,390.884-87.718,588.841a609.51,609.51,0,0,0,13.256,106.736c18.283,83.985,51.092,139.836,80.969,188.8,34.157,56.313,74.472,127.924,92.5,242.9,3.543,22.591,6.27,46.727,7.833,72.662,9.551,161.531-31.1,314.026-61.132,447.823-26.252,116.453-46.905,240.681-60.8,366.67-31.243,280.8-29.357,576.9,24.435,867.738q4.564,24.606,9.553,48.932c37.754,185,91.727,362.26,113.341,562.836,13.92,129.271,14.017,258.516,3.837,387.474-21.5,273.908-89.349,535.811-145.492,788.845-56.7,255.8-103.176,524.317-125.214,807.151-21.966,281.838-15.6,581.6,20.326,827.091" transform="translate(-2539.635 542.955)" fill="none" stroke="#fff" stroke-miterlimit="2" stroke-width="1" fill-rule="evenodd"/></g><g transform="translate(2082.331 49.628)"><path d="M2602.644-555.009c25.587,67.77,48.592,150.481,67.778,242.88,11.823,57.035,22.323,118.941,36.916,178.642,22.161,90.682,51.448,166.871,73.918,243.752,22.484,77.122,44.456,163.037,38.937,262.106-11.565,207.659-99.714,392.851-89.308,593.22a577.651,577.651,0,0,0,15.412,107.85c20.613,84.406,56.755,139.352,89.609,186.9,37.573,54.66,81.45,125.112,101.181,240.351a714.886,714.886,0,0,1,8.611,73.129c10.667,162.8-32.553,315.866-65.239,449.683-28.569,116.517-51.73,241.475-68.021,368.985-36.571,284.282-39.368,586.951,13.068,882.78q4.448,25.029,9.349,49.746c37.1,188,91.5,366.852,112.8,569.5,13.723,130.635,13.285,260.959,2.618,390.794-22.525,275.54-91.136,539.532-147.311,795.148-56.765,258.524-102.5,530.31-124.658,815.438-22.089,284.134-17.219,584.724,15.776,837.483" transform="translate(-2602.644 555.009)" fill="none" stroke="#fff" stroke-miterlimit="2" stroke-width="1" fill-rule="evenodd"/></g><g transform="translate(2115.658 42.539)"><path d="M2654.031-567.059c26.731,60.922,50.75,137.5,70.76,224.218,12.331,53.525,23.248,111.915,37.337,168.9,21.393,86.534,48.122,161.758,68.043,237.831,19.936,76.324,38.553,160.631,32.247,255.186-13.964,209.276-104.016,394.813-90.9,597.578,2.693,41.642,9.043,77.473,17.563,108.971,22.949,84.832,62.418,138.872,98.247,185.006,40.994,53.011,88.436,122.3,109.865,237.815a668.612,668.612,0,0,1,9.387,73.594c11.784,164.062-34,317.7-69.346,451.539-30.879,116.571-56.548,242.262-75.236,371.286-41.895,287.74-49.379,596.949,1.706,897.76q4.328,25.441,9.144,50.544c36.436,190.986,91.271,371.428,112.262,576.142,13.521,131.989,12.552,263.387,1.4,394.1-23.552,277.164-92.921,543.231-149.132,801.432-56.827,261.232-101.812,536.278-124.1,823.685-22.212,286.367-18.84,587.779,11.225,847.83" transform="translate(-2654.031 567.059)" fill="none" stroke="#fff" stroke-miterlimit="2" stroke-width="1" fill-rule="evenodd"/></g><g transform="translate(2143.819 35.448)"><path d="M2696.094-579.113c27.875,54.116,52.908,124.589,73.74,205.66,12.839,50.034,24.173,104.931,37.759,159.206,20.625,82.408,44.8,156.679,62.17,231.943,17.387,75.532,32.611,158.191,25.553,248.3C2878.8,476.774,2787,662.76,2802.83,867.929c3.257,42.2,10.322,78.386,19.719,110.083,25.281,85.268,68.081,138.391,106.888,183.12,44.409,51.382,95.515,119.421,118.544,235.3a625.78,625.78,0,0,1,10.163,74.053c12.9,165.318-35.446,319.525-73.45,453.392-33.194,116.632-61.373,243.055-82.455,373.592-47.218,291.184-59.39,606.911-9.657,912.666q4.213,25.852,8.939,51.35c35.776,193.965,91.047,375.989,111.722,582.756,13.323,133.337,11.823,265.807.181,397.393-24.583,278.779-94.711,546.928-150.955,807.691-56.887,263.93-101.131,542.219-123.545,831.9-22.332,288.645-20.456,590.882,6.678,858.08" transform="translate(-2696.094 579.113)" fill="none" stroke="#fff" stroke-miterlimit="2" stroke-width="1" fill-rule="evenodd"/></g><g transform="translate(2172.003 28.359)"><path d="M2738.152-591.163c29.02,47.339,55.069,111.745,76.722,187.2,13.348,46.555,25.1,97.978,38.178,149.558,19.861,78.3,41.476,151.615,56.3,226.087,14.841,74.743,26.637,155.7,18.862,241.46-19.237,212.118-112.606,398.688-94.073,606.26,3.816,42.745,11.6,79.3,21.87,111.184,27.615,85.718,73.747,137.924,115.526,181.257,47.83,49.751,102.485,116.655,127.228,232.793a593.664,593.664,0,0,1,10.941,74.509c14.015,166.575-36.894,321.348-77.558,455.238-35.509,116.693-66.2,243.844-89.672,375.884-52.542,294.613-69.4,616.821-21.022,927.51q4.1,26.269,8.737,52.146c35.116,196.93,90.816,380.527,111.178,589.346,13.126,134.68,11.1,268.216-1.036,400.669-25.609,280.389-96.5,550.608-152.774,813.924C2830.6,5300.485,2787.107,5582,2764.565,5874c-22.453,290.808-22.077,593.862,2.129,868.285" transform="translate(-2738.152 591.163)" fill="none" stroke="#fff" stroke-miterlimit="2" stroke-width="1" fill-rule="evenodd"/></g><g transform="translate(2196.555 21.268)"><path d="M2781.248-603.217c30.161,40.607,57.224,98.967,79.7,168.827,13.854,43.095,26.018,91.065,38.6,139.965,19.092,74.221,38.151,146.59,50.424,220.262C2962.263-.2,2970.6,79,2962.138,160.489c-22.145,213.273-116.73,400.52-95.658,610.579,4.413,43.274,12.875,80.216,24.023,112.287,29.949,86.167,79.41,137.451,124.164,179.394,51.248,48.134,109.451,113.911,135.909,230.308a564.387,564.387,0,0,1,11.719,74.97c15.13,167.822-38.341,323.16-81.662,457.081-37.824,116.756-71.02,244.628-96.894,378.169-57.863,298.029-79.407,626.69-32.382,942.291q3.978,26.676,8.532,52.94c34.459,199.877,90.59,385.039,110.639,595.9,12.926,136.023,10.363,270.627-2.257,403.941-26.637,282-98.283,554.277-154.6,820.138-57.015,269.3-99.767,554.039-122.432,848.3-22.576,293.072-23.7,596.9-2.421,878.454" transform="translate(-2773.563 603.217)" fill="none" stroke="#fff" stroke-miterlimit="2" stroke-width="1" fill-rule="evenodd"/></g><g transform="translate(2216.353 14.18)"><path d="M2825.712-615.267c31.308,33.9,59.383,86.247,82.686,150.55,14.359,39.651,26.94,84.177,39.019,130.416,18.324,70.159,34.824,141.585,44.546,214.463,9.744,73.187,14.6,150.55,5.478,227.886-25.264,214.2-121.073,402.448-97.25,614.88,4.965,43.822,14.135,81.171,26.179,113.385,32.223,86.734,85.073,136.986,132.8,177.542,54.666,46.525,116.414,111.175,144.588,227.837a539.845,539.845,0,0,1,12.5,75.424c16.248,169.07-39.79,324.966-85.77,458.919-40.138,116.819-75.843,245.42-104.11,380.445-63.187,301.43-89.417,636.52-43.747,957.006q3.866,27.089,8.327,53.729c33.8,202.822,90.363,389.54,110.1,602.443,12.728,137.354,9.633,273.013-3.474,407.193-27.666,283.6-100.073,557.933-156.416,826.326a6674.09,6674.09,0,0,0-121.875,856.416c-22.7,295.272-25.317,599.967-6.969,888.629" transform="translate(-2800.208 615.267)" fill="none" stroke="#fff" stroke-miterlimit="2" stroke-width="1" fill-rule="evenodd"/></g><g transform="translate(2236.139 7.089)"><path d="M2870.2-627.321c32.45,27.228,61.541,73.6,85.666,132.365,14.867,36.231,27.868,77.335,39.44,120.915,17.556,66.123,31.5,136.612,38.674,208.706,7.2,72.413,8.542,147.851-1.217,221.15-28.6,214.833-125.414,404.367-98.837,619.168,5.516,44.374,15.424,82.058,28.33,114.474C2996.853,876.6,3053,925.981,3103.7,965.168c58.084,44.925,123.381,108.454,153.272,225.376a517.514,517.514,0,0,1,13.273,75.882c17.363,170.308-41.237,326.767-89.876,460.753-42.451,116.878-80.665,246.2-111.325,382.71-68.512,304.824-99.43,646.305-55.112,971.667q3.747,27.494,8.123,54.517c33.141,205.739,90.136,394.019,109.557,608.945,12.531,138.687,8.9,275.4-4.692,410.436-28.692,285.2-101.858,561.583-158.237,832.5-57.138,274.624-98.4,565.749-121.319,864.5-22.816,297.465-26.936,602.979-11.517,898.713" transform="translate(-2826.672 627.321)" fill="none" stroke="#fff" stroke-miterlimit="2" stroke-width="1" fill-rule="evenodd"/></g><g transform="translate(2255.895 0)"><path d="M2914.723-639.371c117.241,71.853,191.978,385.2,153.4,643.157-32.173,215.128-129.76,406.28-100.427,623.434,22.352,165.462,106.888,237.536,180.57,289.444s157.9,131.222,176,299.265c18.479,171.542-42.685,328.567-93.983,462.581-144.745,378.142-247.218,893.182-185.016,1371.228,30.043,230.906,96.154,434.779,116.935,670.729,38.356,435.49-82.828,849.316-165.967,1252.312-114.155,553.338-161.867,1174.477-136.83,1781.373" transform="translate(-2852.913 639.371)" fill="none" stroke="#fff" stroke-miterlimit="2" stroke-width="1" fill-rule="evenodd"/></g><g transform="translate(2272.535 4.093)"><path d="M2967.6-632.413C3076.43-558.82,3144.586-250.762,3105.356,6.528c-32.565,213.909-126.922,406.394-97.493,622.512,9.459,69.471,29.747,122.777,55.584,165.14,35.412,58.112,81.159,95.486,123.494,126.172,68.982,49.955,147.181,122.831,172.127,269.855q2.28,13.441,3.951,27.717c19.738,169.256-37.922,326.039-86.887,460.961-50.465,139.174-96.371,296.247-132.08,461.689-58.419,270.7-88.764,563.328-62.49,847.974q2.4,25.984,5.43,51.878c26.851,228.99,89.558,433.556,109.747,668.862,18.175,211.705.672,418.34-30.414,619.926-32.567,211.883-81.094,417.564-120.332,624.872-14.966,79.074-29.475,160.452-43.745,241.217-14.277,80.818-27.892,161.61-40.221,243.156-36.521,241.534-62.035,490.365-76.122,741.08-5.437,96.72-9.291,194.14-9.855,293.339-.568,98.119,2.956,198.4,9.758,290.589" transform="translate(-2875.991 632.413)" fill="none" stroke="#fff" stroke-miterlimit="2" stroke-width="1" fill-rule="evenodd"/></g><g transform="translate(2289.077 8.187)"><path d="M3020.444-625.455c100.42,75.331,162,378.106,122.1,634.726-32.958,212.7-124.085,406.507-94.557,621.583,9.484,69.094,29.54,122.5,55.107,165.146,35.092,58.645,80.383,96.661,122.483,128.041,68.515,50.975,146.1,123.457,172.009,268.534q2.366,13.258,4.141,27.34c21,166.972-33.165,323.506-79.8,459.34-48.049,140.208-92.629,297.959-128.42,462.642-58.489,269.2-91.963,556-69.551,837.806q2.042,25.733,4.714,51.411c23.657,227.082,82.961,432.328,102.557,666.989,17.638,210.972,1.888,416.962-26,616.752-29.14,210.212-73.532,412.545-109.523,620.522-14.152,81.789-28.675,166.74-44,249.467-15.333,82.775-30.617,164.407-44.641,246.7-41.536,243.763-72.487,494.49-92.452,747.048-7.706,97.437-14.012,195.951-15.53,298.072-1.522,101.1,3.392,206.507,13.085,296.133" transform="translate(-2898.813 625.455)" fill="none" stroke="#fff" stroke-miterlimit="2" stroke-width="1" fill-rule="evenodd"/></g><g transform="translate(2305.604 12.283)"><path d="M3073.223-618.492c92.006,77.063,147,374.554,106.457,630.511C3146.326,223.5,3058.43,418.64,3088.056,632.676c9.505,68.718,29.333,122.231,54.628,165.159,34.774,59.167,79.61,97.825,121.471,129.9,68.048,51.995,145.022,124.094,171.893,267.221q2.453,13.075,4.331,26.958c22.258,164.7-28.407,320.987-72.7,457.733-45.635,141.237-88.889,299.66-124.766,463.586-58.557,267.705-95.164,548.688-76.614,827.656q1.688,25.472,4,50.939c20.468,225.171,76.366,431.114,95.369,665.12,17.1,210.246,3.1,415.586-21.593,613.588-25.712,208.544-65.875,407.736-98.712,616.189-13.321,84.574-27.877,173.024-44.253,257.7-16.385,84.729-33.343,167.2-49.059,250.239-46.553,245.948-82.942,498.626-108.784,753.027-9.972,98.153-18.734,197.706-21.2,302.751-2.476,104.075,3.825,214.665,16.407,301.672" transform="translate(-2921.529 618.492)" fill="none" stroke="#fff" stroke-miterlimit="2" stroke-width="1" fill-rule="evenodd"/></g><g transform="translate(2322.121 16.373)"><path d="M3125.92-611.538c83.6,78.81,132.009,371.019,90.811,626.307-33.746,210.267-118.412,406.74-88.689,619.735,9.532,68.331,29.125,121.952,54.151,165.165,34.456,59.687,78.839,98.993,120.459,131.753,67.58,53.019,143.946,124.719,171.775,265.907q2.543,12.9,4.521,26.582c23.516,162.415-23.649,318.463-65.612,456.109-43.222,142.275-85.15,301.37-121.107,464.543-58.626,266.2-98.363,541.372-83.676,817.494q1.333,25.237,3.286,50.473c17.274,223.265,69.767,429.9,88.178,663.26,16.566,209.514,4.316,414.21-17.183,610.419-22.286,206.881-58.12,403.1-87.9,611.851-12.476,87.426-27.083,179.3-44.511,265.933-17.437,86.684-36.07,170-53.479,253.776-51.564,248.178-93.391,502.75-125.111,758.992-12.244,98.867-23.455,199.513-26.878,307.477-3.43,107.051,4.259,222.711,19.733,307.208" transform="translate(-2944.149 611.538)" fill="none" stroke="#fff" stroke-miterlimit="2" stroke-width="1" fill-rule="evenodd"/></g><g transform="translate(2338.628 20.469)"><path d="M3178.53-604.576c75.185,80.539,117.02,367.478,75.163,622.1-34.138,209.052-115.576,406.849-85.753,618.806,9.554,67.955,28.918,121.675,53.674,165.173,34.136,60.213,78.061,100.16,119.445,133.613,67.113,54.037,142.866,125.355,171.659,264.6q2.627,12.718,4.712,26.206c24.775,160.137-18.893,315.943-58.521,454.5-40.81,143.3-81.409,303.074-117.45,465.491-58.694,264.708-101.564,534.071-90.736,807.355q.972,24.985,2.568,50c14.082,221.361,63.172,428.681,80.99,661.4,16.031,208.783,5.323,412.735-12.77,607.26-19.08,205.114-50.268,398.623-77.093,607.514-11.6,90.336-26.287,185.574-44.768,274.162-18.488,88.636-38.8,172.8-57.9,257.316-56.579,250.349-103.845,506.869-141.44,764.948-14.513,99.584-28.176,201.321-32.555,312.2-4.382,109.968,4.7,230.8,23.06,312.688" transform="translate(-2966.67 604.576)" fill="none" stroke="#fff" stroke-miterlimit="2" stroke-width="1" fill-rule="evenodd"/></g><g transform="translate(2355.125 24.563)"><path d="M3231.041-597.617c66.775,82.272,102.029,363.938,59.518,617.9-34.533,207.843-112.741,406.962-82.823,617.886,9.58,67.574,28.713,121.4,53.2,165.179,33.815,60.739,77.288,101.326,118.433,135.466,66.646,55.06,141.79,125.984,171.541,263.284q2.713,12.536,4.9,25.83c26.035,157.86-14.133,313.418-51.427,452.884-38.4,144.339-77.668,304.775-113.792,466.437-58.766,263.214-104.766,526.772-97.8,797.22q.618,24.742,1.853,49.536c10.888,219.459,56.574,427.463,73.8,659.539,15.494,208.047,6.5,411.366-8.359,604.092-15.691,203.454-42.316,394.281-66.284,603.188-10.7,93.3-25.488,191.843-45.024,282.381-19.541,90.586-41.521,175.58-62.315,260.848-61.594,252.576-114.3,510.988-157.772,770.905-16.78,100.3-32.895,203.073-38.228,316.871-5.336,112.938,5.133,238.942,26.386,318.269" transform="translate(-2989.088 597.617)" fill="none" stroke="#fff" stroke-miterlimit="2" stroke-width="1" fill-rule="evenodd"/></g><g transform="translate(2371.61 28.656)"><path d="M3283.443-590.659c58.362,84,87.039,360.408,43.872,613.706-34.926,206.629-109.906,407.077-79.889,616.969,9.6,67.194,28.506,121.12,52.72,165.186,33.5,61.259,76.515,102.492,117.424,137.323,66.176,56.076,140.71,126.609,171.423,261.969q2.8,12.362,5.093,25.455c27.292,155.58-9.375,310.9-44.335,451.272-35.986,145.371-73.93,306.476-110.137,467.389-58.832,261.727-107.962,519.477-104.86,787.09q.264,24.49,1.137,49.072c7.7,217.553,49.977,426.247,66.615,657.676,14.954,207.328,7.684,410.012-3.95,600.938-12.3,201.8-34.273,390.055-55.473,598.868-9.78,96.3-24.693,198.1-45.279,290.6-20.6,92.526-44.246,178.369-66.735,264.372-66.609,254.75-124.749,515.107-174.1,776.861-19.049,101.014-37.616,204.876-43.9,321.588-6.292,115.9,5.564,247.024,29.713,323.738" transform="translate(-3011.396 590.659)" fill="none" stroke="#fff" stroke-miterlimit="2" stroke-width="1" fill-rule="evenodd"/></g><g transform="translate(2388.074 32.752)"><path d="M3335.718-583.7c49.955,85.73,72.046,356.87,28.225,609.508C3328.625,231.234,3256.874,433,3286.99,641.859c9.626,66.814,28.3,120.848,52.243,165.194,33.179,61.789,75.741,103.657,116.407,139.173,65.714,57.1,139.634,127.243,171.31,260.667q2.888,12.18,5.28,25.074c28.555,153.312-4.615,308.392-37.241,449.667-33.57,146.4-70.189,308.177-106.478,468.335-58.9,260.237-111.163,512.192-111.922,776.98q-.09,24.231.422,48.6c4.5,215.655,43.381,425.033,59.424,655.815,14.419,206.6,8.869,408.658.46,597.788-8.9,200.167-26.136,385.921-44.665,594.547-8.821,99.341-23.9,204.358-45.535,298.8-21.643,94.479-46.972,181.159-71.152,267.905-71.623,256.92-135.2,519.221-190.432,782.811-21.316,101.727-42.338,206.626-49.577,326.3-7.243,118.816,6,255.045,33.038,329.205" transform="translate(-3033.575 583.696)" fill="none" stroke="#fff" stroke-miterlimit="2" stroke-width="1" fill-rule="evenodd"/></g><g transform="translate(2469.876 36.845)"><path d="M3387.853-576.738C3429.4-489.279,3444.91-223.4,3400.43,28.583c-35.713,204.205-104.231,407.3-74.019,615.119,9.65,66.439,28.092,120.576,51.766,165.206,32.859,62.3,74.968,104.821,115.4,141.027,65.244,58.113,138.557,127.866,171.192,259.353q2.973,12.006,5.47,24.7c29.824,151.04.145,305.878-30.149,448.055-31.156,147.43-66.448,309.88-102.819,469.285-58.974,258.745-114.368,504.9-118.988,766.868q-.444,23.981-.292,48.137c1.311,213.751,36.785,423.817,52.236,653.957,13.88,205.871,10.062,407.3,4.871,594.626-5.5,198.527-17.915,381.863-33.854,590.227-7.834,102.419-23.1,210.614-45.792,307-22.7,96.425-49.7,183.942-75.571,271.428-76.637,259.144-145.653,523.277-206.761,788.754-23.585,102.441-47.059,208.428-55.254,330.959-8.195,121.834,6.436,263.167,36.366,334.774" transform="translate(-3055.611 576.738)" fill="none" stroke="#fff" stroke-miterlimit="2" stroke-width="1" fill-rule="evenodd"/></g><g transform="translate(2482.523 40.939)"><path d="M3439.83-569.78c33.129,89.187,42.063,349.817-3.071,601.135-36.106,203-101.4,407.419-71.088,614.2,9.677,66.059,27.887,120.295,51.289,165.213,32.544,62.827,74.2,105.979,114.387,142.875,64.776,59.127,137.475,128.494,171.074,258.046q3.06,11.825,5.663,24.325c31.074,148.771,4.89,303.368-23.057,446.452-28.745,148.454-62.71,311.573-99.163,470.229-59.041,257.252-117.566,497.626-126.05,756.768q-.8,23.728-1.007,47.668c-1.884,211.855,30.188,422.6,45.048,652.1,13.345,205.143,11.257,405.968,9.281,591.479-2.1,196.9-9.614,377.858-23.045,585.917-6.81,105.5-22.3,216.86-46.045,315.192-23.753,98.365-52.426,186.73-79.991,274.951-81.652,261.311-156.107,527.385-223.093,794.7-25.854,103.153-51.781,210.228-60.927,335.667-9.151,124.739,6.873,271.229,39.691,340.231" transform="translate(-3077.487 569.78)" fill="none" stroke="#fff" stroke-miterlimit="2" stroke-width="1" fill-rule="evenodd"/></g><g transform="translate(2495.066 45.032)"><path d="M3491.624-562.821c24.718,90.914,27.073,346.291-18.719,596.949-36.5,201.8-98.56,407.532-68.151,613.284,9.7,65.685,27.677,120.023,50.812,165.225,32.223,63.345,73.42,107.135,113.37,144.72,64.312,60.146,136.4,129.121,170.968,256.74q3.143,11.643,5.854,23.951c32.327,146.5,9.66,300.853-15.971,444.838-26.336,149.492-58.971,313.274-95.511,471.183-59.108,255.769-120.763,490.356-133.108,746.667q-1.16,23.487-1.722,47.2c-5.078,209.96,23.59,421.4,37.857,650.246,12.808,204.422,12.456,404.633,13.692,588.334,1.315,195.279-1.236,373.893-12.234,581.6-5.755,108.617-21.506,223.106-46.305,323.382-24.8,100.308-55.148,189.5-84.408,278.474-86.666,263.526-166.557,531.485-239.42,800.624-28.124,103.867-56.5,211.974-66.6,340.372-10.1,127.7,7.309,279.286,43.017,345.738" transform="translate(-3099.182 562.821)" fill="none" stroke="#fff" stroke-miterlimit="2" stroke-width="1" fill-rule="evenodd"/></g><g transform="translate(2507.489 49.125)"><path d="M3543.213-555.863c16.308,92.64,12.08,342.775-34.367,592.77-36.891,200.588-95.725,407.646-65.217,612.371,9.722,65.307,27.473,119.747,50.335,165.227,31.9,63.874,72.646,108.3,112.359,146.571,63.842,61.159,135.324,129.749,170.831,255.436q3.252,11.469,6.046,23.577c33.6,144.236,14.429,298.346-8.865,443.237-23.92,150.514-55.228,314.964-91.852,472.121-59.176,254.282-123.961,483.094-140.168,736.582q-1.514,23.236-2.44,46.736c-8.265,208.062,16.995,420.191,30.669,648.4,12.271,203.694,13.661,403.295,18.1,585.183,4.731,193.654,7.217,369.957-1.424,577.295-4.659,111.731-20.709,229.342-46.561,331.565-25.856,102.25-57.875,192.281-88.829,281.986-91.678,265.7-177.009,535.592-255.747,806.563-30.395,104.579-61.223,213.771-72.278,345.017-11.056,130.657,7.742,287.336,46.342,351.241" transform="translate(-3120.67 555.863)" fill="none" stroke="#fff" stroke-miterlimit="2" stroke-width="1" fill-rule="evenodd"/></g><g transform="translate(2519.771 53.219)"><path d="M3594.562-548.9c7.9,94.364-2.912,339.259-50.014,588.591-37.284,199.38-92.885,407.759-62.281,611.451,9.744,64.933,27.263,119.477,49.856,165.24C3563.707,880.769,3604,925.834,3643.469,964.8c63.377,62.171,134.24,130.375,170.734,254.127,2.192,7.525,4.288,15.26,6.215,23.2,34.856,141.972,19.174,295.846-1.759,441.636-21.511,151.541-51.5,316.662-88.2,473.068-59.248,252.8-127.166,475.83-147.234,726.5q-1.868,22.986-3.156,46.267c-11.459,206.176,10.4,418.974,23.479,646.546,11.738,202.973,14.872,401.967,22.518,582.042,8.151,192.037,15.735,366.03,9.382,572.989-3.524,114.858-19.912,235.579-46.814,339.742-26.909,104.19-60.6,195.062-93.246,285.5-96.7,267.913-187.464,539.691-272.082,812.489-32.662,105.29-65.942,215.567-77.953,349.714-12.01,133.555,8.178,295.377,49.668,356.739" transform="translate(-3141.916 548.905)" fill="none" stroke="#fff" stroke-miterlimit="2" stroke-width="1" fill-rule="evenodd"/></g><g transform="translate(2531.902 57.315)"><path d="M3645.644-541.942c-.516,96.082-17.9,335.738-65.66,584.418-37.679,198.173-90.052,407.869-59.349,610.535,9.768,64.549,27.056,119.2,49.381,165.247,31.264,64.909,71.1,110.617,110.332,150.256,62.9,63.193,133.168,131.008,170.6,252.83q3.432,11.115,6.431,22.825c36.109,139.709,23.92,293.343,5.3,440.034-19.078,152.567-47.743,318.355-84.526,474.016-59.313,251.308-130.362,468.574-154.294,716.428q-2.222,22.737-3.868,45.8c-14.651,204.287,3.8,417.778,16.289,644.7,11.2,202.248,16.088,400.641,26.928,578.906,11.579,190.426,24.317,362.107,20.193,568.693-2.356,117.967-19.116,241.806-47.071,347.9-27.962,106.13-63.328,197.84-97.665,289.021-101.711,270.068-197.918,543.782-288.414,818.408-34.928,106-70.664,217.308-83.623,354.406-12.964,136.509,8.612,303.418,52.995,362.183" transform="translate(-3162.899 541.942)" fill="none" stroke="#fff" stroke-miterlimit="2" stroke-width="1" fill-rule="evenodd"/></g><g transform="translate(2543.85 61.408)"><path d="M3696.412-534.984c-8.925,97.8-32.892,332.223-81.306,580.246-38.074,196.972-87.218,407.987-56.415,609.617,9.794,64.176,26.851,118.925,48.9,165.254,30.947,65.431,70.321,111.776,109.32,152.107,62.442,64.2,132.082,131.628,170.5,251.523q3.469,10.934,6.6,22.452c37.362,137.448,28.69,290.841,12.406,438.43-16.669,153.592-44.01,320.051-80.889,474.956-59.378,249.834-133.556,461.326-161.348,706.364q-2.576,22.486-4.584,45.337c-17.845,202.391-2.794,416.568,9.1,642.858,10.666,201.517,17.31,399.3,31.339,575.76,15.01,188.809,32.958,358.18,31,564.393-1.146,121.085-18.319,248.033-47.327,356.073-29.012,108.066-66.053,200.606-102.082,292.524-106.726,272.28-208.37,547.874-304.741,824.324-37.2,106.712-75.387,219.1-89.3,359.043-13.921,139.458,9.045,311.449,56.316,367.725" transform="translate(-3183.567 534.984)" fill="none" stroke="#fff" stroke-miterlimit="2" stroke-width="1" fill-rule="evenodd"/></g><g transform="translate(2555.596 65.501)"><path d="M3746.832-528.025c-17.337,99.523-47.885,328.718-96.956,576.08-38.467,195.768-84.377,408.1-53.481,608.708,9.818,63.8,26.644,118.65,48.427,165.262,30.626,65.953,69.551,112.934,108.309,153.946,61.97,65.213,131.008,132.253,170.368,250.228q3.578,10.745,6.817,22.073c38.614,135.189,33.435,288.337,19.488,436.835-14.26,154.611-40.251,321.737-77.228,475.9-59.45,248.348-136.758,454.081-168.41,696.311q-2.93,22.237-5.3,44.87c-21.037,200.5-9.393,415.361,1.912,641.009,10.126,200.8,18.531,397.977,35.748,572.63,18.449,187.19,41.646,354.23,41.815,560.1.1,124.19-17.536,254.251-47.587,364.228-30.065,110.009-68.777,203.382-106.5,296.037-111.739,274.439-218.82,551.965-321.07,830.24-39.464,107.421-80.106,220.9-94.974,363.731-14.872,142.4,9.481,319.475,59.643,373.158" transform="translate(-3203.884 528.025)" fill="none" stroke="#fff" stroke-miterlimit="2" stroke-width="1" fill-rule="evenodd"/></g><g transform="translate(2567.11 69.595)"><path d="M3796.837-521.067c-25.727,101.242-62.864,325.208-112.59,571.914-38.857,194.569-81.542,408.215-50.547,607.791,9.84,63.426,26.44,118.38,47.95,165.274,30.306,66.468,68.775,114.09,107.285,155.784,61.522,66.222,129.934,132.878,170.258,248.923q3.685,10.58,7.01,21.706c39.891,132.932,38.2,285.839,26.594,435.228-11.851,155.639-36.542,323.43-73.566,476.842-59.523,246.872-139.979,446.85-175.487,686.267q-3.292,21.988-6.015,44.409c-24.23,198.613-15.99,414.154-5.278,639.154,9.592,200.085,19.765,396.646,40.153,569.494,21.9,185.577,50.393,350.267,52.633,555.814,1.373,127.26-16.741,260.464-47.839,372.38-31.125,111.932-71.51,206.143-110.928,299.533-116.752,276.6-229.272,556-337.4,836.15-41.733,108.129-84.827,222.632-100.649,368.412-15.824,145.3,9.917,327.495,62.97,378.641" transform="translate(-3223.8 521.067)" fill="none" stroke="#fff" stroke-miterlimit="2" stroke-width="1" fill-rule="evenodd"/></g><g transform="translate(2578.365 73.688)"><path d="M3846.41-514.109c-34.157,102.96-77.859,321.708-128.24,567.754-39.252,193.372-78.707,408.329-47.611,606.884,9.862,63.049,26.228,118.106,47.471,165.276,29.988,66.99,68.014,115.247,106.29,157.626,61.041,67.236,128.849,133.5,170.137,247.63q3.758,10.392,7.178,21.323c41.143,130.676,42.974,283.35,33.676,433.641-9.419,156.662-32.785,325.113-69.9,477.782-59.595,245.387-143.158,439.611-182.542,676.229q-3.65,21.738-6.723,43.942c-27.422,196.724-22.586,412.95-12.466,637.319,9.055,199.357,21,395.3,44.578,566.362,25.341,183.944,59.161,346.25,63.425,551.517,2.7,130.334-15.922,266.684-48.1,380.528-32.158,113.872-74.221,208.919-115.333,303.041q-182.655,418.206-353.73,842.056c-44,108.838-89.546,224.422-106.324,373.039-16.78,148.295,10.351,335.563,66.3,384.121" transform="translate(-3243.267 514.109)" fill="none" stroke="#fff" stroke-miterlimit="2" stroke-width="1" fill-rule="evenodd"/></g><g transform="translate(2589.337 77.784)"><path d="M3895.511-507.146c-42.588,104.671-92.861,318.2-143.907,563.6-39.647,192.164-75.871,408.437-44.679,605.964,9.888,62.678,26.023,117.836,47,165.289,29.667,67.51,67.229,116.4,105.264,159.461,60.583,68.249,127.79,134.126,170.017,246.333q3.866,10.211,7.4,20.951c42.4,128.422,47.719,280.851,40.757,432.043-7.009,157.684-29.026,326.8-66.243,478.725-59.667,243.908-146.361,432.38-189.6,666.19q-4.01,21.489-7.443,43.476c-30.619,194.846-29.188,411.745-19.656,635.478,8.528,198.634,22.234,393.956,48.972,563.237,28.81,182.312,68,342.207,74.241,547.236,4.071,133.361-15.128,272.881-48.346,388.667s-76.963,211.676-119.756,306.533q-190.177,421.436-370.06,847.956c-46.273,109.493-94.27,226.211-112,377.714-17.732,151.182,10.787,343.519,69.623,389.595" transform="translate(-3262.246 507.146)" fill="none" stroke="#fff" stroke-miterlimit="2" stroke-width="1" fill-rule="evenodd"/></g><g transform="translate(2600.006 81.877)"><path d="M3944.056-500.188c-50.972,106.387-107.844,314.7-159.538,559.442-40.042,190.964-73.036,408.557-41.748,605.058,9.915,62.3,25.818,117.557,46.519,165.3,29.362,68.025,66.458,117.552,104.253,161.3,60.1,69.25,126.705,134.745,169.92,245.032q3.9,10.039,7.564,20.58c43.648,126.17,52.489,278.365,47.863,430.448-4.624,158.706-25.316,328.49-62.6,479.669-59.715,242.432-149.565,425.157-196.659,656.163q-4.336,21.24-8.166,43.016c-33.8,192.959-35.772,410.547-26.835,633.635,7.973,197.918,23.486,392.61,53.38,560.111,32.254,180.682,76.867,338.13,85.057,542.96,5.468,136.366-14.333,279.087-48.611,396.8-34.278,117.729-79.685,214.442-124.171,310.034q-197.7,424.744-386.389,853.856c-48.543,110.2-98.99,227.944-117.675,382.386-18.686,154.067,11.22,351.52,72.949,395.013" transform="translate(-3280.701 500.188)" fill="none" stroke="#fff" stroke-miterlimit="2" stroke-width="1" fill-rule="evenodd"/></g><g transform="translate(2610.374 85.971)"><path d="M3992.09-493.23c-59.378,108.106-122.827,311.211-175.2,555.29-40.423,189.768-70.189,408.671-38.8,604.145,9.937,61.925,25.6,117.288,46.053,165.309,29.026,68.54,65.665,118.7,103.243,163.132,59.619,70.261,125.6,135.368,169.775,243.736,2.674,6.572,5.275,13.31,7.757,20.208,44.925,123.919,57.258,275.87,54.969,428.852-2.216,159.726-21.583,330.174-58.944,480.606-59.787,240.961-152.769,417.943-203.716,646.15q-4.733,20.992-8.888,42.55c-37,191.084-42.372,409.344-34.037,631.8,7.443,197.2,24.739,391.243,57.812,556.985,35.724,179.026,85.755,333.992,95.848,538.675,6.889,139.341-13.538,285.287-48.852,404.927-35.337,119.657-82.406,217.2-128.608,313.527q-205.2,427.969-402.708,859.748c-50.81,110.908-103.71,229.73-123.35,387-19.637,157.057,11.659,359.57,76.276,400.532" transform="translate(-3298.634 493.23)" fill="none" stroke="#fff" stroke-miterlimit="2" stroke-width="1" fill-rule="evenodd"/></g><g transform="translate(2620.449 90.064)"><path d="M4039.622-486.271c-67.809,109.819-137.834,307.717-190.829,551.143-40.83,188.575-67.368,408.785-35.892,603.24,9.972,61.549,25.413,117.014,45.575,165.311,28.713,69.059,64.894,119.858,102.231,164.969,59.161,71.267,124.537,136,169.679,242.442q4.083,9.686,7.949,19.832c46.178,121.676,61.98,273.388,62.052,427.265.192,160.752-17.826,331.857-55.283,481.549-59.86,239.481-155.973,410.731-210.8,636.137q-5.059,20.751-9.587,42.091c-40.2,189.2-48.972,408.144-41.215,629.962,6.913,196.482,25.967,389.884,62.2,553.864,39.192,177.376,94.692,329.815,106.688,534.41,8.334,142.272-12.743,291.472-49.141,413.047-36.374,121.583-85.128,219.958-132.993,317.018Q3657.5,5727.284,3451.2,6161.648c-53.079,111.614-108.432,231.517-129.023,391.669-20.593,159.938,12.09,367.56,79.6,405.941" transform="translate(-3316.062 486.271)" fill="none" stroke="#fff" stroke-miterlimit="2" stroke-width="1" fill-rule="evenodd"/></g><g transform="translate(2630.264 94.157)"><path d="M4086.7-479.313c-76.216,111.53-152.818,304.224-206.487,547C3839,255.061,3815.7,476.582,3847.282,670.013c9.973,61.178,25.2,116.746,45.07,165.324,28.4,69.578,64.148,121.01,101.244,166.8,58.679,72.277,123.454,136.618,169.535,241.148q4.191,9.506,8.142,19.461c47.455,119.428,66.773,270.9,69.158,425.672,2.625,161.77-14.092,333.544-51.622,482.49-59.956,238.007-159.176,403.523-217.855,626.13q-5.42,20.5-10.31,41.631c-43.384,187.317-55.572,406.948-48.418,628.122,6.383,195.76,27.244,388.5,66.629,550.753,42.661,175.7,103.629,325.566,117.48,530.133,9.828,145.178-11.948,297.667-49.381,421.161s-87.851,222.719-137.425,320.505q-220.268,434.495-435.382,871.521c-55.348,112.322-113.153,233.245-134.7,396.33-21.547,162.872,12.526,375.491,82.927,411.4" transform="translate(-3333.039 479.313)" fill="none" stroke="#fff" stroke-miterlimit="2" stroke-width="1" fill-rule="evenodd"/></g><g transform="translate(2639.878 98.253)"><path d="M4133.436-472.35c-84.623,113.236-167.824,300.735-222.12,542.856-41.625,186.18-61.691,409.008-30.014,601.416,10,60.808,24.98,116.478,44.612,165.337,28.063,70.092,63.353,122.156,100.208,168.627,58.222,73.286,122.369,137.24,169.438,239.857q4.263,9.326,8.311,19.091c48.707,117.178,71.519,268.413,76.24,424.082,5.034,162.789-10.334,335.225-47.96,483.426-60,236.54-162.356,396.333-224.914,616.148q-5.781,20.246-11.009,41.167c-46.587,185.437-62.172,405.744-55.62,626.292,5.854,195.036,28.617,386.952,71.037,547.626,46.274,173.857,112.59,321.283,128.295,525.871,11.37,148.035-11.152,303.848-49.621,429.279-38.494,125.425-90.6,225.461-141.858,323.992q-227.788,437.786-451.709,877.4c-57.617,113.027-117.877,235.029-140.376,400.937-22.5,165.8,12.962,383.524,86.254,416.854" transform="translate(-3349.669 472.35)" fill="none" stroke="#fff" stroke-miterlimit="2" stroke-width="1" fill-rule="evenodd"/></g></g></g></g></svg>