<?xml version="1.0" encoding="UTF-8" standalone="no"?>
<!DOCTYPE svg PUBLIC "-//W3C//DTD SVG 1.1//EN" "http://www.w3.org/Graphics/SVG/1.1/DTD/svg11.dtd">
<svg width="100%" height="100%" viewBox="0 0 329 90" version="1.1" xmlns="http://www.w3.org/2000/svg" xmlns:xlink="http://www.w3.org/1999/xlink" xml:space="preserve" xmlns:serif="http://www.serif.com/" style="fill-rule:evenodd;clip-rule:evenodd;stroke-linejoin:round;stroke-miterlimit:2;">
    <g transform="matrix(1,0,0,1,-413.496,-4447.53)">
        <g transform="matrix(1,0,0,1,-1698.36,953.393)">
            <g transform="matrix(48.073,0,18.4207,48.073,2284.91,3565.48)">
                <path d="M0.378,-0.4C0.378,-0.4 0.801,0.135 0.985,0.368C0.995,0.381 1.016,0.382 1.036,0.371C1.056,0.36 1.07,0.339 1.07,0.321L1.07,-0.744L0.772,-0.363C0.772,-0.363 0.333,-0.909 0.154,-1.13C0.145,-1.141 0.127,-1.142 0.11,-1.132C0.092,-1.122 0.08,-1.105 0.08,-1.089L0.08,-0L0.378,-0.4Z" style="fill:rgb(236,0,135);fill-rule:nonzero;"/>
            </g>
            <g transform="matrix(0.816815,0,0,0.720217,867.001,541.907)">
                <g transform="matrix(32.7074,0,0,32.7074,1759.29,4122.5)">
                    <path d="M0.394,-0.7C0.459,-0.7 0.515,-0.689 0.563,-0.668C0.611,-0.647 0.648,-0.616 0.674,-0.576C0.7,-0.536 0.713,-0.489 0.713,-0.436C0.713,-0.383 0.7,-0.336 0.674,-0.296C0.648,-0.256 0.611,-0.225 0.563,-0.204C0.515,-0.183 0.459,-0.172 0.394,-0.172L0.293,-0.172L0.293,-0L0.057,-0L0.057,-0.7L0.394,-0.7ZM0.379,-0.354C0.411,-0.354 0.435,-0.361 0.451,-0.376C0.467,-0.39 0.475,-0.41 0.475,-0.436C0.475,-0.462 0.467,-0.482 0.451,-0.497C0.435,-0.511 0.411,-0.518 0.379,-0.518L0.293,-0.518L0.293,-0.354L0.379,-0.354Z" style="fill:rgb(120,120,120);fill-rule:nonzero;"/>
                </g>
                <g transform="matrix(32.7074,0,0,32.7074,1783.26,4122.5)">
                    <path d="M0.057,-0.7L0.293,-0.7L0.293,-0.183L0.609,-0.183L0.609,-0L0.057,-0L0.057,-0.7Z" style="fill:rgb(120,120,120);fill-rule:nonzero;"/>
                </g>
                <g transform="matrix(32.7074,0,0,32.7074,1803.77,4122.5)">
                    <path d="M0.534,-0.122L0.268,-0.122L0.221,-0L-0.019,-0L0.287,-0.7L0.519,-0.7L0.825,-0L0.581,-0L0.534,-0.122ZM0.469,-0.292L0.401,-0.468L0.333,-0.292L0.469,-0.292Z" style="fill:rgb(120,120,120);fill-rule:nonzero;"/>
                </g>
                <g transform="matrix(32.7074,0,0,32.7074,1828.66,4122.5)">
                    <path d="M0.473,-0.254L0.473,-0L0.237,-0L0.237,-0.257L-0.027,-0.7L0.222,-0.7L0.365,-0.458L0.509,-0.7L0.737,-0.7L0.473,-0.254Z" style="fill:rgb(120,120,120);fill-rule:nonzero;"/>
                </g>
                <g transform="matrix(32.7074,0,0,32.7074,1851.88,4122.5)">
                    <path d="M0.057,-0.7L0.293,-0.7L0.293,-0.183L0.609,-0.183L0.609,-0L0.057,-0L0.057,-0.7Z" style="fill:rgb(120,120,120);fill-rule:nonzero;"/>
                </g>
                <g transform="matrix(32.7074,0,0,32.7074,1872.06,4122.5)">
                    <rect x="0.057" y="-0.7" width="0.236" height="0.7" style="fill:rgb(120,120,120);fill-rule:nonzero;"/>
                </g>
                <g transform="matrix(32.7074,0,0,32.7074,1883.51,4122.5)">
                    <path d="M0.318,0.016C0.26,0.016 0.204,0.01 0.149,-0.004C0.093,-0.017 0.048,-0.034 0.013,-0.056L0.089,-0.228C0.122,-0.209 0.16,-0.193 0.201,-0.182C0.242,-0.17 0.282,-0.164 0.32,-0.164C0.353,-0.164 0.376,-0.167 0.39,-0.174C0.404,-0.18 0.411,-0.189 0.411,-0.202C0.411,-0.217 0.402,-0.228 0.384,-0.235C0.365,-0.242 0.335,-0.25 0.293,-0.259C0.239,-0.27 0.194,-0.283 0.158,-0.296C0.122,-0.309 0.091,-0.33 0.064,-0.36C0.037,-0.389 0.024,-0.429 0.024,-0.48C0.024,-0.524 0.036,-0.564 0.061,-0.6C0.086,-0.636 0.123,-0.664 0.172,-0.685C0.221,-0.706 0.28,-0.716 0.35,-0.716C0.398,-0.716 0.445,-0.711 0.492,-0.701C0.538,-0.69 0.579,-0.675 0.614,-0.655L0.543,-0.484C0.474,-0.519 0.409,-0.536 0.348,-0.536C0.287,-0.536 0.257,-0.521 0.257,-0.492C0.257,-0.478 0.266,-0.468 0.284,-0.461C0.302,-0.454 0.332,-0.446 0.373,-0.438C0.426,-0.428 0.471,-0.417 0.508,-0.404C0.545,-0.391 0.577,-0.369 0.604,-0.34C0.631,-0.311 0.644,-0.271 0.644,-0.22C0.644,-0.176 0.632,-0.136 0.607,-0.101C0.582,-0.065 0.546,-0.037 0.497,-0.016C0.448,0.006 0.388,0.016 0.318,0.016Z" style="fill:rgb(120,120,120);fill-rule:nonzero;"/>
                </g>
                <g transform="matrix(32.7074,0,0,32.7074,1904.67,4122.5)">
                    <path d="M0.209,-0.517L0.004,-0.517L0.004,-0.7L0.65,-0.7L0.65,-0.517L0.445,-0.517L0.445,-0L0.209,-0L0.209,-0.517Z" style="fill:rgb(120,120,120);fill-rule:nonzero;"/>
                </g>
            </g>
            <g transform="matrix(69.7126,0,0,65.5698,2109.83,3563.57)">
                <path d="M0.419,0.016C0.345,0.016 0.278,0.001 0.219,-0.031C0.16,-0.062 0.113,-0.105 0.08,-0.161C0.046,-0.216 0.029,-0.279 0.029,-0.35C0.029,-0.421 0.046,-0.484 0.08,-0.54C0.113,-0.595 0.16,-0.639 0.219,-0.67C0.278,-0.7 0.345,-0.716 0.419,-0.716C0.487,-0.716 0.548,-0.704 0.601,-0.68C0.654,-0.656 0.698,-0.621 0.733,-0.576C0.733,-0.576 0.659,-0.51 0.616,-0.471C0.599,-0.456 0.574,-0.456 0.558,-0.472C0.52,-0.507 0.478,-0.525 0.431,-0.525C0.382,-0.525 0.342,-0.509 0.312,-0.478C0.282,-0.446 0.267,-0.403 0.267,-0.35C0.267,-0.297 0.282,-0.254 0.312,-0.223C0.342,-0.191 0.382,-0.175 0.431,-0.175C0.478,-0.175 0.519,-0.192 0.556,-0.227C0.574,-0.243 0.6,-0.243 0.617,-0.227C0.661,-0.188 0.733,-0.124 0.733,-0.124C0.698,-0.079 0.654,-0.044 0.601,-0.02C0.548,0.004 0.487,0.016 0.419,0.016Z" style="fill:rgb(120,120,120);fill-rule:nonzero;"/>
            </g>
            <g transform="matrix(69.7126,0,0,65.5698,2161.7,3563.57)">
                <path d="M0.357,-0.176L0.293,-0.176L0.293,-0.052C0.293,-0.038 0.288,-0.025 0.279,-0.015C0.27,-0.005 0.257,0 0.244,0L0.057,-0L0.057,-0.7L0.394,-0.7C0.459,-0.7 0.515,-0.689 0.563,-0.668C0.611,-0.647 0.648,-0.616 0.674,-0.576C0.7,-0.536 0.713,-0.489 0.713,-0.436C0.713,-0.386 0.702,-0.342 0.679,-0.305C0.656,-0.268 0.624,-0.238 0.581,-0.216L0.728,-0L0.516,0C0.491,0 0.467,-0.013 0.453,-0.035C0.418,-0.086 0.357,-0.176 0.357,-0.176ZM0.475,-0.436C0.475,-0.462 0.467,-0.482 0.451,-0.497C0.435,-0.511 0.411,-0.518 0.379,-0.518L0.293,-0.518L0.293,-0.354L0.379,-0.354C0.411,-0.354 0.435,-0.361 0.451,-0.376C0.467,-0.39 0.475,-0.41 0.475,-0.436Z" style="fill:rgb(120,120,120);fill-rule:nonzero;"/>
            </g>
            <g transform="matrix(69.7126,0,0,65.5698,2332.43,3563.57)">
                <path d="M0.419,0.016C0.345,0.016 0.278,0.001 0.219,-0.031C0.16,-0.062 0.113,-0.105 0.08,-0.161C0.046,-0.216 0.029,-0.279 0.029,-0.35C0.029,-0.421 0.046,-0.484 0.08,-0.54C0.113,-0.595 0.16,-0.639 0.219,-0.67C0.278,-0.7 0.345,-0.716 0.419,-0.716C0.487,-0.716 0.548,-0.704 0.601,-0.68C0.654,-0.656 0.698,-0.621 0.733,-0.576C0.733,-0.576 0.676,-0.525 0.633,-0.486C0.607,-0.464 0.571,-0.463 0.544,-0.484C0.51,-0.511 0.473,-0.525 0.431,-0.525C0.382,-0.525 0.342,-0.509 0.312,-0.478C0.282,-0.446 0.267,-0.403 0.267,-0.35C0.267,-0.297 0.282,-0.254 0.312,-0.223C0.342,-0.191 0.382,-0.175 0.431,-0.175C0.473,-0.175 0.51,-0.189 0.544,-0.216C0.571,-0.237 0.607,-0.236 0.632,-0.214C0.676,-0.175 0.733,-0.124 0.733,-0.124C0.698,-0.079 0.654,-0.044 0.601,-0.02C0.548,0.004 0.487,0.016 0.419,0.016Z" style="fill:rgb(120,120,120);fill-rule:nonzero;"/>
            </g>
            <g transform="matrix(69.7126,0,0,65.5698,2384.3,3563.57)">
                <path d="M0.747,-0.7L0.747,-0L0.563,0C0.534,0 0.511,-0.025 0.511,-0.055L0.511,-0.258L0.293,-0.258L0.293,-0L0.057,-0L0.057,-0.7L0.223,-0.7C0.242,-0.7 0.259,-0.692 0.273,-0.678C0.286,-0.664 0.293,-0.645 0.293,-0.626L0.293,-0.452L0.511,-0.452L0.511,-0.7L0.747,-0.7Z" style="fill:rgb(120,120,120);fill-rule:nonzero;"/>
            </g>
            <g transform="matrix(69.2301,0,0,65.1658,2212.26,3563.4)">
                <path d="M0.392,0.016C0.285,0.016 0.201,-0.013 0.141,-0.071C0.081,-0.129 0.051,-0.21 0.051,-0.315L0.051,-0.7L0.287,-0.7L0.287,-0.322C0.287,-0.271 0.296,-0.233 0.315,-0.21C0.333,-0.187 0.359,-0.175 0.394,-0.175C0.429,-0.175 0.455,-0.187 0.474,-0.21C0.492,-0.233 0.501,-0.271 0.501,-0.322L0.501,-0.7L0.733,-0.7L0.733,-0.315C0.733,-0.21 0.703,-0.129 0.643,-0.071C0.583,-0.013 0.499,0.016 0.392,0.016Z" style="fill:rgb(120,120,120);fill-rule:nonzero;"/>
            </g>
        </g>
    </g>
</svg>
